<?xml version="1.0" encoding="UTF-8"?>
<svg width="280px" height="300px" viewBox="0 0 280 300" version="1.1" xmlns="http://www.w3.org/2000/svg" xmlns:xlink="http://www.w3.org/1999/xlink">
    <title>art</title>
    <g id="Page-1" stroke="none" stroke-width="1" fill="none" fill-rule="evenodd">
        <g id="Artboard" transform="translate(-748.000000, -742.000000)" fill="#000000" fill-rule="nonzero">
            <g id="art" transform="translate(748.482115, 742.000000)">
                <path d="M181.639369,299.910699 C180.308738,300.029767 178.971851,300.029767 177.643306,299.910699 L165.533783,297.12623 C160.827513,295.975277 156.764874,293.017388 154.224788,288.892075 C151.686788,284.766549 150.876314,279.805522 151.970904,275.086845 L169.16648,202.429707 C158.724322,206.866514 149.779478,214.217308 143.401992,223.600651 C137.024506,232.983993 133.483895,244.004756 133.19994,255.34744 C133.220829,260.557129 133.995816,265.737726 135.501899,270.725919 L137.922895,278.960074 L129.325106,278.960074 C56.7909622,273.873647 -1.51986462e-14,218.415133 -1.51986462e-14,151.81142 C-1.51986462e-14,81.6997149 62.4861011,24.6627655 139.255504,24.6627655 C162.325361,24.5165421 185.117147,29.6970009 205.859217,39.7990008 C206.575681,38.5456424 207.223269,37.2505732 207.795617,35.9241138 C209.036409,33.0748867 210.007738,30.1150722 210.701261,27.0840818 C212.071571,20.7445634 212.111249,14.1895388 210.822415,7.83076919 L209.734082,1.65595524 L215.908896,0.444414716 C225.463361,-0.800547988 235.174508,0.582279857 244.002241,4.44047708 C256.809084,10.0554027 266.975843,20.3681495 272.404674,33.2546712 C277.833505,46.141193 278.113716,60.619145 273.185897,73.7061998 L273.185897,74.9177404 C270.723084,81.0465654 267.151189,86.6716514 262.651762,91.505835 C273.747924,110.270382 279.400283,131.752552 278.972479,153.54809 C278.546344,175.343627 272.053821,196.587297 260.228788,214.90051 L256.111603,221.438958 L250.782879,215.867882 L250.782879,215.869971 C242.383485,207.127799 231.809777,200.775446 220.14731,197.46264 L199.439998,285.376333 L199.439998,285.378422 C198.560594,289.460098 196.321308,293.121672 193.085507,295.762291 C189.851898,298.402643 185.813911,299.864877 181.640684,299.908726 L181.639369,299.910699 Z M183.333472,194.195018 L163.595671,277.750459 C163.194605,279.325472 163.443181,280.994495 164.287109,282.383628 C165.12892,283.772761 166.495059,284.764945 168.076329,285.138845 L180.185852,287.802192 C183.452883,288.483148 186.669754,286.446481 187.451031,283.200359 L226.08065,118.15363 C226.552736,116.557708 226.320265,114.836493 225.441457,113.424366 C224.562042,112.012239 223.118589,111.045135 221.478817,110.767276 L209.369294,107.982808 L209.369294,107.980718 C206.229695,107.214094 203.054374,109.098249 202.223365,112.219078 L183.333472,194.195018 Z M139.255771,36.7722847 C69.144066,36.7722847 12.1071166,88.3590167 12.1071166,151.81035 C12.1071166,209.451573 59.6960178,258.007311 121.94041,265.638262 L121.94041,265.638262 C121.365976,262.237538 121.081861,258.792915 121.092342,255.344281 C121.482964,240.136924 126.636145,225.435444 135.825372,213.311483 C145.016738,201.18966 157.779731,192.257651 172.315972,187.774801 L190.721163,109.427872 C191.381265,106.513886 192.753659,103.808668 194.717226,101.556816 C187.364347,97.1910237 182.511982,89.6002324 181.640866,81.0917484 C181.576113,80.2039485 181.576113,79.3141164 181.640866,78.428402 C181.663844,69.5172477 185.659869,61.0841641 192.538635,55.4195063 L193.750175,53.604281 L197.625062,49.7293941 C179.342864,41.2171668 159.423247,36.7947444 139.256573,36.7722847 L139.255771,36.7722847 Z M222.447579,186.200433 C233.811119,189.33169 244.349532,194.911054 253.327531,202.547888 C262.065425,186.868877 266.652551,169.21555 266.652551,151.26597 C266.652551,133.316389 262.065371,115.663063 253.327531,99.9819128 C248.17843,103.520492 242.436179,106.104321 236.374199,107.612864 C238.488138,111.272619 239.258934,115.555043 238.552897,119.722387 L222.447579,186.200433 Z M217.969007,97.3188338 C229.904735,98.6139565 241.832441,94.785005 250.783167,86.7846985 L251.388938,85.2096852 C255.978204,80.9128232 259.502238,75.6070928 261.682968,69.7103514 L262.288738,68.3776354 C266.539611,55.6895077 264.548933,41.7382891 256.918196,30.7442647 C249.287244,19.7502403 236.913018,13.0075167 223.53773,12.5540446 C223.800931,18.3716424 223.272443,24.1956571 221.964802,29.8710101 C221.026896,33.5892138 219.81327,37.232445 218.330127,40.7687786 C217.603181,42.343792 216.755114,43.9167198 215.909132,45.4917332 L214.818713,47.1879221 L212.155367,51.1839844 L211.307299,52.3955249 L211.307299,52.3934357 C208.182299,56.8970873 204.476876,60.9682293 200.288676,64.5029586 L198.592487,65.95685 C195.425722,69.2029722 193.608412,73.5311174 193.508145,78.066373 L193.508145,79.6413864 L193.508145,79.6392976 C193.911302,84.7487196 196.873357,89.3065953 201.379201,91.7488206 C204.648318,93.5557037 208.153475,94.8988474 211.792482,95.744883 L215.667369,96.5929507 L217.969328,96.5929507 L217.969007,97.3188338 Z M78.7135036,218.414064 C70.6836252,218.414064 62.9842252,215.224358 57.3067333,209.546759 C51.6292413,203.871406 48.4394288,196.169332 48.4394288,188.142128 C48.4394288,180.112249 51.6291344,172.412849 57.3067333,166.735357 C62.9842252,161.057865 70.6841599,157.868053 78.7135036,157.868053 C86.7428473,157.868053 94.442782,161.057759 100.120274,166.735357 C105.797766,172.412849 108.985439,180.112784 108.985439,188.142128 C108.985439,196.169867 105.797819,203.871406 100.120274,209.546759 C94.442782,215.224251 86.7428473,218.414064 78.7135036,218.414064 Z M78.7135036,169.977041 C73.8965391,169.977041 69.2761505,171.890447 65.8686927,175.297424 C62.4638018,178.7044 60.54831,183.323024 60.54831,188.142235 C60.54831,192.959199 62.4638018,197.579588 65.8686927,200.984907 C69.2756692,204.391883 73.8964321,206.305289 78.7135036,206.305289 C83.5304681,206.305289 88.1508567,204.391883 91.5583144,200.984907 C94.9632054,197.580016 96.8766116,192.959306 96.8766116,188.142235 C96.8766116,183.323185 94.9632054,178.704882 91.5583144,175.297424 C88.151338,171.890447 83.530575,169.977041 78.7135036,169.977041 L78.7135036,169.977041 Z M66.6039806,145.758797 C61.2981967,145.754352 56.0842837,144.377793 51.4677453,141.762468 C44.5367881,137.712128 39.4796117,131.094644 37.3951374,123.342838 C35.3104492,115.591032 36.363221,107.329605 40.3258612,100.34838 C44.3490357,93.4029847 50.9728298,88.3479473 58.7331918,86.3025101 C66.4935537,84.1321542 74.805248,85.2246583 81.7399485,89.3293294 C89.4500436,93.8224998 94.7831534,101.484307 96.3205735,110.274606 C97.8559081,119.062767 95.4369981,128.082477 89.7093996,134.921456 C83.9795017,141.762575 75.5260975,145.727247 66.604248,145.758797 L66.6039806,145.758797 Z M66.6039806,97.3215076 C65.0122294,97.3444855 63.4267883,97.54711 61.881026,97.9272779 C57.2416001,99.2035772 53.285377,102.247081 50.8624029,106.404211 C48.4601773,110.586154 47.806386,115.547449 49.0450921,120.207303 C50.2900548,124.869723 53.3377295,128.842524 57.5156085,131.253198 C61.6933806,133.665852 66.6609855,134.315525 71.3187,133.060082 C75.9768958,131.806723 79.9437605,128.750706 82.3458792,124.566571 C84.9548945,120.470242 85.8259566,115.503011 84.7668747,110.763479 C83.5406819,106.098973 80.484665,102.126119 76.2920803,99.742717 C73.3446721,98.0653515 69.9942727,97.2277116 66.6039271,97.3217215 L66.6039806,97.3215076 Z M130.298628,112.700312 C125.011667,112.725054 119.818503,111.302512 115.283782,108.582802 C108.336247,104.578398 103.262493,97.9818228 101.173206,90.2401773 C99.0843469,82.4985317 100.153857,74.2456605 104.143609,67.2895698 C108.15427,60.335618 114.761166,55.2597253 122.515111,53.1768552 C130.269056,51.0939852 138.530483,52.1762755 145.486574,56.1869366 C152.440525,60.1955123 157.518557,66.8028894 159.603032,74.5568343 C161.677292,82.2963409 160.59944,90.5411908 156.603378,97.4887254 C152.609401,104.434121 146.023254,109.512153 138.290164,111.6116 C135.687405,112.328065 132.999033,112.695709 130.298253,112.700312 L130.298628,112.700312 Z M114.677904,73.1029964 C112.256909,77.2786829 111.598893,82.2462344 112.848027,86.9082269 C114.095075,91.5706473 117.14906,95.5455868 121.330843,97.9541225 C125.514871,100.360519 130.484241,101.005968 135.14249,99.7422357 C139.802772,98.4951875 143.773968,95.4453738 146.182504,91.2653023 C148.5889,87.0854447 149.236435,82.118321 147.978959,77.4622108 C146.733996,72.8019294 143.686322,68.8269899 139.508443,66.4163151 C135.330671,64.0057473 130.363066,63.3539882 125.706955,64.6094321 C121.04876,65.8627904 117.079756,68.9188073 114.677637,73.1029429 L114.677904,73.1029964 Z" id="Shape"></path>
            </g>
        </g>
    </g>
</svg>