<?xml version="1.0" encoding="UTF-8"?>
<svg width="51px" height="50px" viewBox="0 0 51 50" version="1.1" xmlns="http://www.w3.org/2000/svg" xmlns:xlink="http://www.w3.org/1999/xlink">
    <title>noun-check-1905028</title>
    <g id="Page-1" stroke="none" stroke-width="1" fill="none" fill-rule="evenodd">
        <g id="Artboard-Copy" transform="translate(-139.000000, -245.000000)" fill="#00A300" fill-rule="nonzero">
            <g id="noun-check-1905028" transform="translate(139.468550, 245.000000)">
                <path d="M25,0 C11.215251,0 0,11.215251 0,25 C0,38.784749 11.215251,50 25,50 C38.784749,50 50,38.784749 50,25 C50,11.215251 38.784749,0 25,0 Z M38.8571429,19.9063707 L22.8909266,35.8725869 C22.4049035,36.35861 21.7314672,36.6376255 21.0444981,36.6376255 L21.0444981,37.71861 L21.0211207,36.6376255 C20.3250878,36.6315927 19.6486303,36.340888 19.1652326,35.8397876 L11.1103098,27.4903668 C10.1104064,26.4542664 10.1401361,24.7985714 11.1762934,23.798668 C11.6653282,23.3262259 12.309305,23.0668147 12.9887452,23.0668147 C13.7040154,23.0668147 14.3713707,23.3499807 14.8683784,23.8646525 L21.0780309,30.3009459 L35.1658687,16.2140734 C35.6586776,15.7212645 36.3143243,15.4490347 37.0122973,15.4490347 C37.7094691,15.4490347 38.3651931,15.7205116 38.8583398,16.2133205 C39.8756178,17.2317568 39.8756178,18.8885135 38.8579627,19.9061776 L38.8571429,19.9063707 Z" id="Shape"></path>
            </g>
        </g>
    </g>
</svg>