<?xml version="1.0" encoding="UTF-8"?>
<svg width="51px" height="51px" viewBox="0 0 51 51" version="1.1" xmlns="http://www.w3.org/2000/svg" xmlns:xlink="http://www.w3.org/1999/xlink">
    <title>noun-circle-1023016</title>
    <g id="Page-1" stroke="none" stroke-width="1" fill="none" fill-rule="evenodd">
        <g id="Artboard-Copy" transform="translate(-58.000000, -244.000000)" fill="#000000" fill-rule="nonzero">
            <g id="noun-circle-1023016" transform="translate(58.068550, 244.602000)">
                <path d="M25,0 C11.2063718,0 0,11.2063718 0,25 C0,38.7936282 11.2063718,50 25,50 C38.7936282,50 50,38.7936282 50,25 C50,11.2063718 38.7936282,0 25,0 L25,0 Z M25,2.27252435 C37.5649351,2.27252435 47.7272727,12.434862 47.7272727,24.9997971 C47.7272727,37.5647321 37.5649351,47.7270698 25,47.7270698 C12.4350649,47.7270698 2.27272727,37.5647321 2.27272727,24.9997971 C2.27272727,12.434862 12.4350649,2.27252435 25,2.27252435 Z" id="Shape"></path>
            </g>
        </g>
    </g>
</svg>