<?xml version="1.0" encoding="UTF-8"?>
<svg width="291px" height="301px" viewBox="0 0 291 301" version="1.1" xmlns="http://www.w3.org/2000/svg" xmlns:xlink="http://www.w3.org/1999/xlink">
    <title>growth</title>
    <g id="Page-1" stroke="none" stroke-width="1" fill="none" fill-rule="evenodd">
        <g id="Artboard" transform="translate(-103.000000, -98.000000)" fill="#000000" fill-rule="nonzero">
            <g id="growth" transform="translate(103.230815, 98.838307)">
                <path d="M161.324013,148.386399 L123.416005,148.386399 L123.416005,254.162607 L161.324013,254.162607 L161.324013,148.386399 Z M119.216028,139.986445 L165.523454,139.986445 C167.846245,139.986445 169.723324,141.863524 169.723324,144.186314 L169.723324,258.35712 C169.723324,260.679911 167.846245,262.55699 165.523454,262.55699 L119.216028,262.55699 C116.893237,262.55699 115.016158,260.679911 115.016158,258.35712 L115.016158,144.186314 C115.016158,141.863524 116.893237,139.986445 119.216028,139.986445 Z M49.1931959,183.052766 L95.5006218,183.052766 C97.8234127,183.052766 99.7004917,184.929896 99.7004917,187.252687 L99.7004917,258.352299 C99.7004917,260.67509 97.8234127,262.552169 95.5006218,262.552169 L49.1931959,262.554261 C46.870405,262.554261 44.9933259,260.677182 44.9933259,258.354391 L44.9933259,187.254779 C44.9933259,184.938256 46.8787621,183.052766 49.1931959,183.052766 L49.1931959,183.052766 Z M91.3011804,191.452771 L53.3931729,191.452771 L53.3931729,254.152429 L91.3011804,254.152429 L91.3011804,191.452771 Z M233.80576,45.4392819 C209.259465,71.3521762 181.18069,93.2472353 149.559791,111.112138 C116.764077,129.652572 80.1851696,143.853209 39.8246756,153.724227 C37.5751164,154.270384 35.312968,152.885088 34.7730781,150.639708 C34.7542446,150.572744 34.7437817,150.507875 34.7312262,150.440911 L34.7249482,150.440911 L31.3056097,132.619937 C30.8745281,130.36411 32.3372827,128.185693 34.580574,127.723213 C72.7875084,118.896297 106.596252,106.309223 136.821088,89.4262794 C165.802001,73.2317249 191.533289,53.0541564 214.729591,28.4141123 L207.342667,21.8264697 C205.614141,20.2842102 205.45932,17.6328675 207.001569,15.9041805 C207.512166,15.3349872 208.142045,14.9332037 208.826309,14.7092763 L252.750355,0.211855449 C254.951807,-0.514301303 257.322759,0.686881428 258.048862,2.88832299 C258.318812,3.69815785 258.318812,4.53729613 258.115826,5.30529194 L248.755341,50.3532604 C248.280315,52.6216766 246.066338,54.0739365 243.800011,53.5989213 C243.055051,53.4419739 242.395858,53.1008758 241.868504,52.6279444 L241.862226,52.6342224 L233.80576,45.4392819 Z M145.461599,103.837178 C177.428568,85.7654904 205.696985,63.4932905 230.253994,37.0178993 C230.3084,36.9467514 230.362807,36.8797875 230.421403,36.8149129 C231.963663,35.0863866 234.615006,34.931566 236.343693,36.4738147 L242.024912,41.5442156 L248.480769,10.4708138 L218.342719,20.4130809 L223.496852,25.0147344 L223.551259,25.0628648 C225.25466,26.6281599 225.363463,29.2815918 223.79819,30.985154 C199.257788,57.6914368 171.905437,79.4295325 140.891499,96.7544379 C110.975234,113.463811 77.6989867,126.047135 40.3009765,134.999408 L42.1299487,144.533463 C80.0690274,134.892801 114.515268,121.334482 145.463313,103.838149 L145.461599,103.837178 Z M239.730728,153.47405 L239.730728,101.034871 C239.730728,98.7120805 237.853649,96.8350014 235.530858,96.8350014 L189.223432,96.8350014 C186.900641,96.8350014 185.023562,98.7120805 185.023562,101.034871 L185.023562,258.35187 C185.023562,260.674661 186.900641,262.55174 189.223432,262.55174 L235.530858,262.55174 C237.853649,262.55174 239.730728,260.674661 239.730728,258.35187 L239.730728,153.47405 Z M231.330773,254.161 L231.330773,105.243956 L193.422766,105.243956 L193.422766,254.161 L231.330773,254.161 Z M24.5140448,275.484991 L285.780476,275.484991 C288.103267,275.484991 289.980346,277.36207 289.980346,279.684861 L289.980346,295.80013 C289.980346,298.122921 288.103267,300 285.780476,300 L4.19986994,300 C1.87707904,300 0,298.122921 0,295.80013 L0,41.5783029 C0,39.255512 1.87707904,37.378433 4.19986994,37.378433 L20.3108535,37.378433 C22.6336444,37.378433 24.5107234,39.255512 24.5107234,41.5783029 L24.5140448,275.484991 Z M281.580499,283.890838 L281.580499,291.60026 L8.39984702,291.60026 L8.39984702,45.7730301 L16.1114121,45.7730301 L16.1114121,279.680682 C16.1114121,282.003473 17.9884911,283.880552 20.311282,283.880552 L281.577714,283.880552 L281.580499,283.890838 Z" id="Shape"></path>
            </g>
        </g>
    </g>
</svg>