<?xml version="1.0" encoding="UTF-8"?>
<svg width="139px" height="101px" viewBox="0 0 139 101" version="1.1" xmlns="http://www.w3.org/2000/svg" xmlns:xlink="http://www.w3.org/1999/xlink">
    <title>liquidity copy</title>
    <g id="Page-1" stroke="none" stroke-width="1" fill="none" fill-rule="evenodd">
        <g id="liquidity-copy" transform="translate(0.718550, 0.260650)" fill="#FFFFFF" fill-rule="nonzero">
            <path d="M4.76357371,64.2729538 C4.76357371,65.5882446 3.69707761,66.6547407 2.38178686,66.6547407 C1.0664961,66.6547407 0,65.5882446 0,64.2729538 C0,62.9576631 1.0664961,61.891167 2.38178686,61.891167 C3.69707761,61.891167 4.76357371,62.9576631 4.76357371,64.2729538" id="Path"></path>
            <path d="M88.1261136,85.7090355 L71.4056977,85.7090355 L59.116222,73.8959171 C60.4028224,73.4674133 61.5937158,72.7528772 62.5930864,71.752309 C64.2603372,70.0850582 65.2130519,67.7990872 65.2130519,65.4173003 C65.2130519,63.0355135 64.3081907,60.7960894 62.5930864,59.0822917 L48.3981811,44.9339334 C47.064816,43.6005683 45.2060423,42.8381787 43.3485208,42.8381787 L23.8178686,42.8371155 L23.8178686,40.4553286 C23.8178686,39.1219635 22.7694468,38.0735418 21.4360817,38.0735418 L4.76357371,38.0735418 L4.76357371,35.6917549 C4.76357371,34.3583898 3.71515197,33.309968 2.38178686,33.309968 C1.04842174,33.309968 0,34.3583898 0,35.6917549 L0,54.7460497 C0,56.0794149 1.04842174,57.1278366 2.38178686,57.1278366 C3.71515197,57.1278366 4.76357371,56.0794149 4.76357371,54.7460497 L4.76357371,42.8371155 L19.0542948,42.8371155 L19.0542948,85.7092789 L4.76357371,85.7092789 L4.76357371,73.8003446 C4.76357371,72.4669795 3.71515197,71.4185577 2.38178686,71.4185577 C1.04842174,71.4185577 0,72.4669795 0,73.8003446 L0,92.8546394 C0,94.1880045 1.04842174,95.2364263 2.38178686,95.2364263 C3.71515197,95.2364263 4.76357371,94.1880045 4.76357371,92.8546394 L4.76357371,90.4728526 L21.4360817,90.4728526 C22.7694468,90.4728526 23.8178686,89.4244308 23.8178686,88.0910657 L23.8178686,85.7092789 L30.3910559,85.7092789 L58.447144,99.7618213 C58.7810297,99.9521519 59.1616801,100 59.4955657,100 L97.6041554,100 C98.9375205,100 99.9859423,98.9048136 99.9859423,97.6182131 C99.9859423,94.4260744 98.7471954,91.4734753 96.5090779,89.1861433 C94.2697627,86.9468281 91.2691468,85.7092789 88.077008,85.7092789 L88.1261136,85.7090355 Z M60.1163002,95.2361829 L32.0602121,81.1836405 C31.7263264,81.0411579 31.345676,80.9454618 31.0117904,80.9454618 L23.8664298,80.9454618 L23.8664298,47.6004458 L43.397082,47.6004458 C44.0159111,47.6004458 44.6358289,47.8386245 45.0643328,48.3149819 L59.259238,62.4633402 C60.0694811,63.2735833 60.497985,64.3209162 60.497985,65.4173003 C60.497985,66.5124868 60.0694811,67.608762 59.259238,68.3712604 C57.7823124,69.848186 55.4004711,69.9428042 53.7811283,68.7051461 L37.4426149,53.0332608 C36.4899001,52.1283996 34.965121,52.1283996 34.0602053,53.0811089 C33.1552896,54.0338182 33.1553441,55.5586027 34.1080534,56.4635184 L50.1139333,71.897225 C50.1139333,71.897225 50.4478189,72.1832572 50.5902906,72.3257289 L68.5960548,89.6169571 C69.0245587,90.1411679 69.6912413,90.4739648 70.4536308,90.4739648 L88.1746694,90.4739648 C90.0800989,90.4739648 91.8897125,91.2363544 93.2243298,92.5697195 C93.9867193,93.332109 94.5576949,94.2369703 94.8915806,95.2375385 L60.1174925,95.2375385 L60.1163002,95.2361829 Z" id="Shape"></path>
            <path d="M138.143638,45.218659 C138.143638,32.8333673 129.473389,22.449321 117.898449,19.7335396 C109.562195,7.6343346 99.4628747,0.679244781 99.0344252,0.393158154 C98.2241822,-0.131052718 97.0811423,-0.131052718 96.2720969,0.393158154 C95.0812035,1.20340121 66.6889431,20.8765251 66.6889431,51.9350257 C66.6889431,67.5124561 79.0742348,80.3749218 94.794028,81.7549971 C95.0322067,81.8506932 95.2703854,81.8974797 95.5564176,81.8974797 L99.747818,81.8974797 C100.03385,81.8974797 100.272029,81.8974797 100.510208,81.7549971 C109.560998,80.9447541 117.897252,76.3247953 123.137183,68.989164 C123.137183,68.989164 123.137183,68.8934679 123.185031,68.8466814 C132.04555,64.655281 138.14238,55.6510378 138.14238,45.2190836 L138.143638,45.218659 Z M97.7022578,77.1346028 L97.6065617,77.1346028 C83.1734778,77.1346028 71.4548142,65.8443887 71.4548142,51.9355701 C71.4548142,27.022624 92.2242678,9.44449261 97.6544697,5.25254775 C100.178728,7.20583073 105.990724,12.0173668 111.468833,19.0190036 C97.2260202,19.2571823 85.7455354,30.9279378 85.7455354,45.170751 C85.7455354,59.4135642 97.5121069,71.3704064 111.945191,71.3704064 C112.755434,71.3704064 113.564588,71.3225584 114.374831,71.2279239 C109.75362,74.942967 103.894969,77.0400282 97.7023232,77.0400282 L97.7022578,77.1346028 Z M111.945071,66.6547407 C100.131953,66.6547407 90.5089893,57.0317774 90.5089893,45.218659 C90.5089893,33.4055406 100.131953,23.7825773 111.945071,23.7825773 C123.758189,23.7825773 133.381153,33.4055406 133.381153,45.218659 C133.381153,57.0317774 123.758189,66.6547407 111.945071,66.6547407 Z" id="Shape"></path>
            <path d="M116.707556,40.4550853 C116.707556,41.7884504 117.755978,42.8368721 119.089343,42.8368721 C120.422708,42.8368721 121.47113,41.7884504 121.47113,40.4550853 C121.47113,36.5018635 118.278991,33.3097247 114.325769,33.3097247 L114.325769,30.9279378 C114.325769,29.5945727 113.277347,28.546151 111.943982,28.546151 C110.610617,28.546151 109.562195,29.5945727 109.562195,30.9279378 L109.562195,33.3097247 C105.608974,33.3097247 102.416835,36.5018635 102.416835,40.4550853 C102.416835,44.408307 105.608974,47.6004458 109.562195,47.6004458 L109.562195,52.3640195 C108.22883,52.3640195 107.180408,51.3155978 107.180408,49.9822327 C107.180408,48.6488676 106.131987,47.6004458 104.798622,47.6004458 C103.465257,47.6004458 102.416835,48.6488676 102.416835,49.9822327 C102.416835,53.9354545 105.608974,57.1275933 109.562195,57.1275933 L109.562195,59.5093801 C109.562195,60.8427452 110.610617,61.891167 111.943982,61.891167 C113.277347,61.891167 114.325769,60.8427452 114.325769,59.5093801 L114.325769,57.1275933 C118.278991,57.1275933 121.47113,53.9354545 121.47113,49.9822327 C121.47113,46.0290109 118.278991,42.8368721 114.325769,42.8368721 L114.325769,38.0732984 C115.659134,38.0732984 116.707556,39.1217202 116.707556,40.4550853 Z M116.707556,49.9822327 C116.707556,51.3155978 115.659134,52.3640195 114.325769,52.3640195 L114.325769,47.6004458 C115.659134,47.6004458 116.707556,48.6488676 116.707556,49.9822327 Z M109.562195,42.8368721 C108.22883,42.8368721 107.180408,41.7884504 107.180408,40.4550853 C107.180408,39.1217202 108.22883,38.0732984 109.562195,38.0732984 L109.562195,42.8368721 Z" id="Shape"></path>
        </g>
    </g>
</svg>