<?xml version="1.0" encoding="UTF-8"?>
<svg width="101px" height="101px" viewBox="0 0 101 101" version="1.1" xmlns="http://www.w3.org/2000/svg" xmlns:xlink="http://www.w3.org/1999/xlink">
    <title>marketing copy</title>
    <g id="Page-1" stroke="none" stroke-width="1" fill="none" fill-rule="evenodd">
        <g id="marketing-copy" transform="translate(0.134550, 0.538000)" fill="#FFFFFF" fill-rule="nonzero">
            <path d="M15.2521844,32.0500094 C15.664877,32.2880138 16.1183395,32.407398 16.5718019,32.407398 C17.0259911,32.407398 17.4816337,32.2880287 17.8957983,32.0478293 L24.4312775,28.2753108 C25.2595881,27.7971032 25.7538204,26.9418673 25.7538204,25.9876881 C25.7538204,25.0335089 25.2596067,24.1782172 24.4312775,23.7000654 L17.8957983,19.927547 C17.0674877,19.4493394 16.0797683,19.4493394 15.2520913,19.9253634 C14.4259608,20.4028443 13.9324738,21.2588068 13.9324738,22.215222 L13.9324738,29.7617496 C13.9324738,30.7159847 14.4259608,31.5726926 15.2520913,32.0501176 L15.2521844,32.0500094 Z M16.3709152,22.2128778 C16.3709152,22.1837631 16.3709152,22.0935085 16.4706337,22.0345505 C16.5033875,22.0163539 16.5368699,22.0061644 16.5703523,22.0061644 C16.6052899,22.0061644 16.6402275,22.0156266 16.6744366,22.0367344 L23.2099158,25.8092528 C23.2361199,25.824538 23.3140001,25.8689375 23.3140001,25.9853962 C23.3140001,26.101855 23.2353895,26.1462546 23.2099158,26.1615396 L16.6744366,29.9340581 C16.6482343,29.9493432 16.5703523,29.9937427 16.4698977,29.9362415 C16.3701792,29.8787407 16.3701792,29.7884842 16.3701792,29.7579143 L16.3709152,22.2128778 Z M5.28627742,39.5965369 L31.7568874,39.5965369 C34.6713377,39.5965369 37.041879,37.2258093 37.041879,34.3115453 L37.0411512,17.6609242 C37.0411512,14.7464738 34.6704236,12.3759325 31.7561596,12.3759325 L5.28741294,12.3759325 C2.37296263,12.3759325 0.0024213114,14.7466602 0.0024213114,17.6609242 L0.0024213114,34.3115453 C0.0024213114,37.2259956 2.37314897,39.5965369 5.28741294,39.5965369 L5.28627742,39.5965369 Z M2.44039803,17.6612968 C2.44039803,16.0927371 3.71635746,14.8154174 5.28627742,14.8154174 L31.7568874,14.8154174 C33.3261738,14.8154174 34.6027668,16.0913769 34.6027668,17.6612968 L34.6027668,34.311918 C34.6027668,35.8804777 33.3268074,37.1577974 31.7568874,37.1577974 L5.28627742,37.1577974 C3.7177177,37.1577974 2.44039803,35.8818379 2.44039803,34.311918 L2.44039803,17.6612968 Z M63.8430456,55.9343032 C63.7018398,55.4051519 63.2236341,55.0353907 62.6755512,55.0310118 L57.1211206,54.9822445 L52.9919588,39.5718626 C52.6927996,38.4545852 51.9736807,37.5199524 50.9670671,36.938404 C49.9604349,36.3568369 48.7906858,36.201807 47.6734271,36.5016743 C46.5561497,36.8008336 45.6215169,37.5199524 45.0399685,38.526566 C44.4584014,39.5331983 44.3040982,40.7029473 44.6032388,41.820206 L45.0792663,43.5961928 C43.256696,46.9604534 36.876843,56.3703211 20.5614368,61.6189776 C17.5720802,62.5812251 14.4524761,63.3614988 11.4361011,64.1169714 C9.91412489,64.4976518 8.34127948,64.8921582 6.79675684,65.3048507 C4.40348277,65.9461006 2.41641684,67.4927847 1.20245074,69.6604083 C-0.0174594099,71.8352989 -0.321705588,74.4061493 0.347214888,76.8983667 C1.50671556,81.2283966 5.21370033,84.0329098 9.32981869,84.0321645 C10.1202848,84.0321645 10.9253037,83.9288068 11.7311051,83.7133656 C11.9181658,83.663143 12.1052266,83.6114632 12.2922873,83.5612406 L20.4181273,97.635235 C21.2930214,99.151379 22.887053,100 24.5239973,100 C25.3261093,100 26.1391405,99.7954612 26.8829859,99.3660358 C27.9740647,98.7357051 28.7573197,97.7152282 29.0839633,96.490902 C29.4122279,95.2673583 29.2448217,93.9921628 28.6152214,92.8996865 L21.7078195,80.9349931 C22.9677542,80.6060018 24.2328317,80.29447 25.4933813,80.0229813 C42.2503992,76.4112691 52.4782732,81.3702694 55.7391185,83.3719625 L56.215146,85.1479493 C56.7348502,87.0861957 58.4934519,88.3672421 60.4106426,88.3664967 C60.7811305,88.3664967 61.1581588,88.3184579 61.5337336,88.2187394 C63.8468841,87.5993279 65.2240788,85.2133581 64.6045182,82.9002077 L60.4753564,67.4898257 L65.2611592,64.6700331 C65.7328079,64.3919855 65.9620919,63.8329835 65.8201613,63.3038321 L63.8430456,55.9343032 Z M11.0993397,81.3577161 C7.41998822,82.3432553 3.73187908,80.1079739 2.70275632,76.2678162 C2.20053026,74.3934823 2.4232553,72.4712606 3.33018021,70.8538814 C4.22182574,69.2649554 5.67687078,68.1309825 7.42878318,67.6614207 C8.95366622,67.2530884 10.5170831,66.8614888 12.0289973,66.4830072 C14.679226,65.8199189 17.407156,65.1364458 20.0857074,64.3219053 L23.729469,77.9205616 C21.0043341,78.5552525 18.3002549,79.3268058 15.6742496,80.0771915 C14.1755652,80.5051821 12.6260115,80.9484521 11.0995633,81.3575111 L11.0993397,81.3577161 Z M26.5039452,94.1201054 C26.8081914,94.6470766 26.8889858,95.2657614 26.7288504,95.8604278 C26.5687187,96.4550941 26.19096,96.9507799 25.6639888,97.2550261 C25.1370175,97.5592722 24.5183327,97.6400667 23.9236663,97.4799312 C23.329,97.3197995 22.8333142,96.9420408 22.5290681,96.4150696 L14.7175735,82.8855432 C15.264203,82.7312363 15.8079256,82.5754648 16.3450893,82.422615 C17.311697,82.1467475 18.2885531,81.8679731 19.272583,81.5943044 L26.5039452,94.1201054 Z M26.1174512,77.4061307 L22.4110814,63.5745568 C32.7598861,60.0247075 41.2941703,53.9412746 45.959974,46.8743708 L54.8611498,80.0958621 C47.2890945,76.3088096 36.8558804,75.3072643 26.1191282,77.4070623 L26.1174512,77.4061307 Z M60.9022849,85.8640179 C59.888367,86.1355065 58.8423624,85.5313744 58.5708737,84.5181832 L46.961333,41.1880716 C46.8310445,40.6996716 46.8994645,40.1879797 47.1549527,39.7454364 C47.4104352,39.3028932 47.8187676,38.9877278 48.3071677,38.8559897 C48.4694814,38.8123167 48.6332522,38.7904821 48.7962945,38.7904821 C49.1267392,38.7904821 49.4535504,38.8770976 49.7498029,39.0481447 C50.1923462,39.3036273 50.5075115,39.7119597 50.6392497,40.2003597 L62.2487904,83.5304713 C62.5195523,84.5465693 61.9154202,85.5924435 60.902229,85.8639322 L60.9022849,85.8640179 Z M59.8184918,65.0467819 L57.7775753,57.4273977 L61.7276701,57.4623353 L63.2219757,63.041362 L59.8184918,65.0467819 Z M69.9576708,42.6214833 L65.6436657,50.0931046 C65.4173071,50.4847041 65.0075027,50.7030503 64.5860711,50.7030503 C64.3793521,50.7030503 64.1697264,50.6506439 63.9775787,50.5400081 C63.3938315,50.2030044 63.1951249,49.4576683 63.5306752,48.8739211 L67.8446803,41.4022998 C68.181684,40.8185527 68.9270201,40.6198461 69.5107673,40.9553964 C70.0945145,41.2931268 70.2946745,42.0384628 69.9576708,42.6214833 L69.9576708,42.6214833 Z M76.5514725,73.8883308 L69.0798512,69.5743257 C68.496104,69.237322 68.2973974,68.491986 68.6329477,67.9082388 C68.9699514,67.325945 69.7152875,67.125785 70.2990347,67.4613353 L77.770656,71.7753404 C78.3544032,72.1123441 78.5531098,72.8576801 78.2175595,73.4414273 C77.9912009,73.8330269 77.5813965,74.0513731 77.1599649,74.0513731 C76.9525192,74.0513731 76.7421667,73.9996952 76.5514725,73.8883308 Z M70.7656151,56.7666573 L79.0990312,54.5328851 C79.7490201,54.358197 80.4186486,54.744691 80.5926101,55.3946799 C80.7665696,56.0446689 80.3808042,56.7142974 79.7308153,56.8882589 L71.3973992,59.122031 C71.2918577,59.1504171 71.1855933,59.1635202 71.0807804,59.1635202 C70.54289,59.1635202 70.0493844,58.8039514 69.9038202,58.2595021 C69.7284035,57.6095131 70.1141727,56.9406113 70.7656151,56.7666498 L70.7656151,56.7666573 Z M93.5840784,0 L63.8861633,0 C60.3495437,0 57.4706832,2.87792884 57.4706832,6.41548009 L57.4706832,21.5187836 C57.4706832,25.0554032 60.348612,27.9342637 63.8861633,27.9342637 L67.0611085,27.9342637 L67.0611085,34.9014788 C67.0611085,35.3731274 67.3325972,35.8025714 67.7598611,36.0034768 C67.9258139,36.0820874 68.1034237,36.1199355 68.280292,36.1199355 C68.5576129,36.1199355 68.8327351,36.0253133 69.0554787,35.8426146 L78.6727362,27.9329221 L93.583743,27.9329221 C97.1203626,27.9329221 99.9992231,25.0549932 99.9992231,21.517442 L99.9984951,6.41488382 C99.9977672,2.87826424 97.1205662,0 93.5837603,0 L93.5840784,0 Z M97.5597009,21.5178519 C97.5597009,23.7102579 95.7757018,25.4942198 93.583333,25.4942198 L78.2355593,25.4942198 C77.9531515,25.4942198 77.6787374,25.5917544 77.4603726,25.7715407 L69.4996245,32.3180136 L69.4996245,26.7127138 C69.4996245,26.0387064 68.9537217,25.4928036 68.2797143,25.4928036 L63.8848403,25.4928036 C61.6924343,25.4928036 59.9084724,23.7088045 59.9084724,21.5164358 L59.9099281,6.41536829 C59.9099281,4.22296229 61.6939272,2.43900044 63.8862959,2.43900044 L93.5842111,2.43900044 C95.7766171,2.43900044 97.5605789,4.22299955 97.5605789,6.41536829 L97.5597009,21.5178519 Z M92.5665083,8.25031113 C92.5665083,8.92431852 92.0206056,9.47022128 91.3465982,9.47022128 L66.1225627,9.47022128 C65.4485553,9.47022128 64.9026526,8.92431852 64.9026526,8.25031113 C64.9026526,7.57630373 65.4485553,7.03040097 66.1225627,7.03040097 L91.3465982,7.03112898 C92.0206056,7.03112898 92.5665083,7.57630504 92.5665083,8.25031243 L92.5665083,8.25031113 Z M92.5665083,19.6828345 C92.5665083,20.3568419 92.0206056,20.9027447 91.3465982,20.9027447 L78.2363233,20.9020169 C77.5623159,20.9020169 77.0164132,20.3561141 77.0164132,19.6821067 C77.0164132,19.0080993 77.5623159,18.4621966 78.2363233,18.4621966 L91.3465982,18.4629244 C92.0206056,18.4629244 92.5665083,19.0088271 92.5665083,19.6828345 Z M92.5665083,13.9668523 C92.5665083,14.6408597 92.0206056,15.1867625 91.3465982,15.1867625 L66.1225627,15.1860345 C65.4485553,15.1860345 64.9026526,14.6401317 64.9026526,13.9661243 C64.9026526,13.2921169 65.4485553,12.7462142 66.1225627,12.7462142 L91.3465982,12.7469422 C92.0206056,12.7469422 92.5665083,13.2928449 92.5665083,13.9668523 Z M92.7113532,76.405517 C90.5875181,76.405517 88.5916945,77.4106958 87.2254935,79.0782921 C85.8600192,77.4107517 83.8649596,76.405517 81.7396338,76.405517 C77.7211545,76.405517 74.4515515,79.9115778 74.4515515,84.2227879 C74.4515515,87.8279784 78.7219545,92.4252112 83.4785028,97.2130636 C84.2493107,97.9889771 84.9153058,98.6600591 85.4109729,99.1958439 C85.8826215,99.7053556 86.5435297,99.9979559 87.224096,99.9979559 C87.9046437,99.9979559 88.5655518,99.7053556 89.0372191,99.1958439 C89.5329049,98.6601336 90.1981732,97.989033 90.9696892,97.2130636 C95.7269829,92.4252112 99.996641,87.8287237 99.996641,84.2227879 C99.9980963,79.9115778 96.7292736,76.405517 92.7113532,76.405517 Z M89.2401369,95.4935734 C88.4518508,96.2862196 87.7720298,96.9704195 87.2465493,97.5389618 C87.2349034,97.5520635 87.226168,97.5564307 87.226168,97.5571585 C87.2239846,97.5564307 87.21525,97.5520635 87.2036049,97.5389618 C86.6788137,96.970494 85.9982474,96.2855675 85.2100172,95.4935734 C82.302275,92.5675703 76.8918805,87.1208408 76.8918805,84.2233469 C76.8918805,81.257282 79.0667711,78.8436976 81.7408506,78.8436976 C83.5874579,78.8436976 85.3029979,80.0381359 86.1081472,81.8861593 C86.3017669,82.3308827 86.740658,82.6176694 87.2254246,82.6176694 C87.7101911,82.6176694 88.1490823,82.3308827 88.342702,81.8861593 C89.1491742,80.0380986 90.8632422,78.8436976 92.7099986,78.8436976 C95.3842643,78.8436976 97.5589686,81.2565367 97.5589686,84.2233469 C97.5596966,87.1210271 92.1480152,92.5675703 89.2400866,95.4935734 L89.2401369,95.4935734 Z" id="Shape"></path>
        </g>
    </g>
</svg>