<?xml version="1.0" encoding="UTF-8"?>
<svg width="88px" height="101px" viewBox="0 0 88 101" version="1.1" xmlns="http://www.w3.org/2000/svg" xmlns:xlink="http://www.w3.org/1999/xlink">
    <title>nft copy</title>
    <g id="Page-1" stroke="none" stroke-width="1" fill="none" fill-rule="evenodd">
        <g id="nft-copy" transform="translate(0.377616, 0.667690)" fill="#FFFFFF" fill-rule="nonzero">
            <path d="M43.417706,46.8380973 C44.8131467,46.8380973 45.9493823,45.702614 45.9493823,44.306421 C45.9493823,42.9094757 44.8131467,41.7755162 43.417706,41.7755162 C42.0222653,41.7755162 40.8860297,42.9109996 40.8860297,44.3071925 C40.8860297,45.7041378 42.0222653,46.8380973 43.417706,46.8380973 Z M43.417706,43.1257436 C44.0687085,43.1257436 44.599155,43.6561901 44.599155,44.3071925 C44.599155,44.958195 44.0687085,45.4878892 43.417706,45.4878892 C42.7667035,45.4878892 42.2362571,44.9574428 42.2362571,44.3064403 C42.2362571,43.6546855 42.7667035,43.1257436 43.417706,43.1257436 L43.417706,43.1257436 Z" id="Shape"></path>
            <path d="M30.5018167,41.1613556 L30.5018167,58.8387254 C30.5018167,61.0862753 32.3320113,62.9150618 34.5796963,62.9150618 L52.257066,62.9150618 C54.5046159,62.9150618 56.3334024,61.0863717 56.3334024,58.8387254 L56.3334024,41.1613556 C56.3334024,38.9122626 54.5047123,37.0834758 52.257066,37.0834758 L34.5804678,37.0834758 C32.3321463,37.0827226 30.5018167,38.9129184 30.5018167,41.1613556 Z M54.9852968,58.8387254 C54.9852968,60.3426665 53.7616436,61.5648344 52.2591878,61.5648344 L34.5812394,61.5655881 C33.076546,61.5655881 31.8535872,60.3419349 31.8535872,58.839479 L31.8535872,52.7709785 L35.5161754,50.0660873 L40.906476,54.6992961 L51.3504847,47.0311619 L54.9852968,50.2589769 L54.9860503,58.8387074 L54.9852968,58.8387254 Z M54.9854897,41.1613556 L54.9854897,48.4527764 L51.430341,45.2965234 L40.9720584,52.974495 L35.5794432,48.3391644 L31.8528156,51.0916993 L31.8528156,41.1617414 C31.8528156,39.657048 33.0764688,38.4340889 34.5804678,38.4340889 L52.2578375,38.4340889 C53.7610264,38.4333358 54.9854897,39.6569709 54.9854897,41.1617414 L54.9854897,41.1613556 Z" id="Shape"></path>
            <path d="M85.0182115,70.3204803 C84.1358958,69.7576284 83.0893153,69.5737853 82.0660358,69.8005849 C81.3193408,69.9671027 80.6562827,70.3408302 80.1327031,70.8735335 L71.0601396,65.0959105 L71.0601396,35.0244179 L80.1334747,29.2467949 C80.6571314,29.7779937 81.3209418,30.1532219 82.0662287,30.3182389 C82.3510495,30.3822841 82.6373556,30.4131773 82.9229287,30.4131773 C83.6598249,30.4131773 84.3809042,30.2037184 85.0182887,29.7983416 C85.9006044,29.2369942 86.5101742,28.3652296 86.7369738,27.3442069 C86.9637735,26.3231843 86.7791684,25.2758515 86.2170784,24.3928027 C85.655731,23.510487 84.7824618,22.900165 83.7629437,22.6741176 C82.7397221,22.447318 81.6945883,22.631923 80.810768,23.194013 C79.9284523,23.7568649 79.3181302,24.6286296 79.0920829,25.6481477 C78.9255651,26.3948427 78.9850889,27.1535934 79.2457927,27.8536477 L70.2175938,33.6034945 L44.2006411,18.5799003 L44.2006411,7.73969622 C45.963768,7.35918286 47.2899614,5.79112523 47.2899614,3.91585229 C47.2899614,1.75645293 45.5336049,0 43.3756522,0 C41.2176995,0 39.461343,1.75635648 39.461343,3.91585229 C39.461343,5.79126025 40.7874592,7.35931788 42.5506633,7.73969622 L42.5506633,18.5806718 L16.5761463,33.5762971 L7.58575376,27.851333 C7.84571111,27.1513559 7.90521756,26.391853 7.73946365,25.6466046 C7.51266403,24.6256398 6.90236125,23.7538752 6.02077851,23.1924699 C5.13846278,22.6318941 4.08956758,22.4472794 3.06937435,22.6725745 C2.04840956,22.8986218 1.17589263,23.5096769 0.615239643,24.3912596 C0.0538922551,25.2735754 -0.131455386,26.321699 0.0953442356,27.3426638 C0.322143857,28.3636286 0.932446632,29.2361455 1.81402938,29.7967985 C2.44996718,30.2021753 3.17255101,30.4116342 3.90938938,30.4101296 C4.1942102,30.4101296 4.48051627,30.3784842 4.76458482,30.3159455 C5.51127985,30.1509342 6.17433794,29.7757002 6.69791754,29.2445015 L15.6890816,34.9710087 L15.6890816,65.1485906 L6.69791754,70.8735547 C6.17426078,70.3423559 5.51045043,69.9671278 4.76458482,69.8006061 C3.74136323,69.5730542 2.69487914,69.7584115 1.81318066,70.3205015 C0.930864937,70.8833535 0.320542873,71.7551181 0.0944955212,72.7746362 C-0.1323041,73.795601 0.0523009156,74.8443419 0.614390929,75.726812 C1.17573832,76.6091277 2.04750298,77.2186975 3.06852563,77.4454971 C3.35259419,77.5080358 3.63965253,77.5396813 3.92372108,77.5396813 C4.66061731,77.5396813 5.38320114,77.3309747 6.01908108,76.9263501 C6.9013968,76.3634982 7.51171887,75.4917335 7.73776622,74.4722154 C7.90277751,73.7255204 7.84476017,72.9667697 7.58405633,72.2667154 L16.554967,66.5539034 L42.5468441,81.5616807 L42.5468441,92.2595322 C40.7837172,92.6400456 39.4575238,94.2081032 39.4575238,96.0833762 C39.4575238,98.2435471 41.2138803,100 43.371833,100 C45.5297857,100 47.2861422,98.2436435 47.2861422,96.0833762 C47.2861422,94.2079682 45.960026,92.6399106 44.1968219,92.2595322 L44.1968219,81.5616807 L70.2330636,66.5290206 L79.2431309,72.2667154 C78.9831735,72.9666926 78.9236671,73.7261955 79.089421,74.4706723 C79.3154683,75.4916371 79.9265234,76.364154 80.8081061,76.9261572 C81.4440439,77.3315341 82.1666278,77.5394884 82.9034661,77.5394884 C83.1875347,77.5394884 83.474593,77.5078429 83.7601661,77.4453042 C84.7796264,77.2185046 85.651391,76.6082018 86.2143008,75.7266191 C86.7748766,74.8443034 86.9609958,73.7961797 86.7341962,72.7744434 C86.5081489,71.7534786 85.8985984,70.8817139 85.0162826,70.3203087 L85.0182115,70.3204803 Z M80.7038493,26.0040889 C80.8357067,25.4141167 81.1890824,24.9100382 81.6999506,24.584537 C82.0668845,24.3502146 82.4850692,24.2281348 82.9115289,24.2281348 C83.075786,24.2281348 83.242296,24.2462182 83.4050563,24.2831392 C83.9957808,24.4134902 84.5006115,24.7668678 84.8246082,25.2777167 C85.1501095,25.7878133 85.2563531,26.3936218 85.125246,26.9843462 C84.994895,27.5750707 84.6415174,28.0799014 84.1314208,28.4038981 C83.623581,28.7293994 83.0200486,28.8378998 82.4232867,28.7052882 C81.8325622,28.5749372 81.3299883,28.2215596 81.0052393,27.7107107 C80.6804903,27.2006141 80.5734945,26.5933011 80.7038493,26.0040812 L80.7038493,26.0040889 Z M5.82988336,27.7107184 C5.50588666,28.220815 5.00105593,28.5734558 4.41033145,28.7045436 C3.82261605,28.8348946 3.21381782,28.729409 2.70370191,28.4031536 L2.70294848,28.4031536 C2.19285187,28.0791569 1.84021106,27.5743262 1.70912327,26.9836017 C1.57877232,26.3928772 1.68425787,25.787088 2.01051331,25.2754676 C2.33451001,24.765371 2.83934074,24.4127302 3.43006522,24.2816424 C3.59432231,24.2447214 3.76083235,24.226638 3.92509715,24.226638 C4.35080456,24.226638 4.76898926,24.3479482 5.13667547,24.5830401 C5.64752435,24.9085414 6.00091743,25.4126198 6.13125295,26.0025921 C6.26160391,26.5933165 6.15460996,27.2006102 5.82986291,27.7107261 L5.82988336,27.7107184 Z M6.1312734,74.1122467 C6.00092245,74.7029712 5.6475448,75.2078019 5.13669591,75.5317986 C4.6265993,75.8572999 4.02231468,75.965048 3.43006637,75.8324364 C2.8393419,75.7020854 2.33451117,75.3487078 2.01051446,74.8386112 C1.68501322,74.3285146 1.57876962,73.7227061 1.70912442,73.1327339 C1.83947538,72.5420094 2.19285303,72.0371787 2.70370191,71.713182 C3.07063585,71.4788597 3.48882055,71.3575321 3.91528023,71.3575321 C4.07953732,71.3575321 4.24604736,71.3756155 4.41031216,71.4125365 C5.00103664,71.5428875 5.50586737,71.8962651 5.82986407,72.4063617 C6.15461305,72.9157061 6.26160892,73.5214952 6.13125411,74.112239 L6.1312734,74.1122467 Z M41.1137359,3.91392532 C41.1137359,2.66540864 42.1301678,1.64901534 43.3778743,1.64901534 C44.6255808,1.64901534 45.6420127,2.66544722 45.6420127,3.91392532 C45.6420127,5.162442 44.6255808,6.17806374 43.3778743,6.17806374 C42.1301678,6.17806374 41.1137359,5.16238413 41.1137359,3.91392532 Z M45.6414341,96.0823751 C45.6414341,97.3323963 44.6250022,98.3488282 43.3772956,98.3488282 C42.1295891,98.3488282 41.1131572,97.3323963 41.1131572,96.0823751 C41.1131572,94.8338584 42.1295891,93.8182366 43.3772956,93.8182366 C44.6250022,93.8182366 45.6414341,94.8346685 45.6414341,96.0823751 Z M69.4112226,65.1004434 L43.3788387,80.1323319 L17.344526,65.1004434 L17.344526,35.0385953 L43.3769099,20.0074783 L69.4112226,35.0385953 L69.4112226,65.1004434 Z M84.8265757,74.8382833 C84.5010744,75.3491322 83.996996,75.7025252 83.4070238,75.8321085 C82.8208129,75.9662266 82.2112624,75.8569739 81.7011465,75.5314707 C81.1902976,75.2059695 80.8369045,74.701891 80.7050452,74.1119188 C80.5746942,73.5219466 80.6824405,72.9161574 81.0064352,72.4060415 C81.3319365,71.8951927 81.8337581,71.5417996 82.4244826,71.4122163 C82.5894939,71.374543 82.7560213,71.3572119 82.9195145,71.3572119 C83.3459742,71.3572119 83.7641589,71.4785221 84.1310929,71.7128618 C84.6419417,72.038363 84.9953348,72.5424415 85.1249181,73.1324137 C85.2582839,73.7223859 85.1512899,74.3281751 84.8265371,74.838291 L84.8265757,74.8382833 Z" id="Shape"></path>
            <path d="M19.4569567,36.2600303 L19.4569567,63.8818246 L43.3771992,77.6900214 L67.2974416,63.8818246 L67.2966882,36.2600303 L43.3783747,22.4502904 L19.4569567,36.2600303 Z M65.6463064,62.927021 L43.3771992,75.7842719 L21.1080919,62.927021 L21.1080919,37.2148339 L43.3771992,24.357583 L65.6463064,37.2140623 L65.6463064,62.927021 Z" id="Shape"></path>
        </g>
    </g>
</svg>