<?xml version="1.0" encoding="UTF-8"?>
<svg width="101px" height="100px" viewBox="0 0 101 100" version="1.1" xmlns="http://www.w3.org/2000/svg" xmlns:xlink="http://www.w3.org/1999/xlink">
    <title>noun-private-3048019 copy</title>
    <g id="Page-1" stroke="none" stroke-width="1" fill="none" fill-rule="evenodd">
        <g id="noun-private-3048019-copy" transform="translate(0.578880, 0.000000)" fill="#FFFFFF" fill-rule="nonzero">
            <path d="M67.7415917,58.0642025 C66.853062,58.0642025 66.1286972,57.3412756 66.1286972,56.451308 L62.9029082,56.451308 C62.9029082,59.1191277 65.073772,61.2899916 67.7415917,61.2899916 L67.7415917,64.5157806 L70.9673808,64.5157806 L70.9673808,61.2899916 L75.8060643,61.2899916 L75.8060643,56.451308 C75.8060643,53.7834883 73.6352005,51.6126245 70.9673808,51.6126245 L67.7415917,51.6126245 C66.853062,51.6126245 66.1286972,50.8896975 66.1286972,49.99973 L66.1286972,48.3868354 L70.9673808,48.3868354 C71.8559105,48.3868354 72.5802753,49.1097624 72.5802753,49.99973 L75.8060643,49.99973 C75.8060643,47.3319103 73.6352005,45.1610464 70.9673808,45.1610464 L70.9673808,41.9352574 L67.7415917,41.9352574 L67.7415917,45.1610464 L62.9029082,45.1610464 L62.9029082,49.99973 C62.9029082,52.6675496 65.073772,54.8384135 67.7415917,54.8384135 L70.9673808,54.8384135 C71.8559105,54.8384135 72.5802753,55.5613405 72.5802753,56.451308 L72.5802753,58.0642025 L67.7415917,58.0642025 Z" id="Path"></path>
            <path d="M69.3544863,70.9673586 C79.1369219,70.9673586 87.0963259,63.0079546 87.0963259,53.225519 C87.0963259,43.4430833 79.1369219,35.4836793 69.3544863,35.4836793 C59.5720506,35.4836793 51.6126466,43.4430833 51.6126466,53.225519 C51.6126466,63.0079546 59.5720506,70.9673586 69.3544863,70.9673586 Z M69.3544863,38.7094684 C77.357761,38.7094684 83.8705369,45.2207696 83.8705369,53.225519 C83.8705369,61.2302684 77.357761,67.7415696 69.3544863,67.7415696 C61.3512115,67.7415696 54.8384356,61.2302684 54.8384356,53.225519 C54.8384356,45.2207696 61.3512115,38.7094684 69.3544863,38.7094684 Z" id="Shape"></path>
            <polygon id="Path" points="83.8705369 33.8707848 87.0963259 33.8707848 87.0963259 37.0965738 83.8705369 37.0965738"></polygon>
            <polygon id="Path" points="51.6126466 35.4836793 54.8384356 35.4836793 54.8384356 38.7094684 51.6126466 38.7094684"></polygon>
            <polygon id="Path" points="51.6126466 67.7415696 54.8384356 67.7415696 54.8384356 70.9673586 51.6126466 70.9673586"></polygon>
            <polygon id="Path" points="83.8705369 67.7415696 87.0963259 67.7415696 87.0963259 70.9673586 83.8705369 70.9673586"></polygon>
            <polygon id="Path" points="14.5160728 58.0642025 17.7418618 58.0642025 17.7418618 27.4192067 12.4854846 27.4192067 20.9676508 12.8771655 29.449817 27.4192067 24.1934398 27.4192067 24.1934398 54.8384135 27.4192289 54.8384135 27.4192289 30.6449958 35.0660078 30.6449958 20.9676508 6.47738437 6.86929378 30.6449958 14.5160728 30.6449958"></polygon>
            <polygon id="Path" points="14.5160728 61.2899916 17.7418618 61.2899916 17.7418618 64.5157806 14.5160728 64.5157806"></polygon>
            <polygon id="Path" points="24.1934398 58.0642025 27.4192289 58.0642025 27.4192289 61.2899916 24.1934398 61.2899916"></polygon>
            <polygon id="Path" points="24.1934398 64.5157806 27.4192289 64.5157806 27.4192289 67.7415696 24.1934398 67.7415696"></polygon>
            <path d="M93.547904,70.9747319 L93.547904,33.8707848 C93.547904,31.2029651 91.3770401,29.0321013 88.7092204,29.0321013 L88.7092204,19.3547342 C88.7092204,8.68234942 80.026871,0 69.3544863,0 C58.6821015,0 49.9997521,8.68234942 49.9997521,19.3547342 L49.9997521,29.0321013 C47.3319324,29.0321013 45.1610685,31.2029651 45.1610685,33.8707848 L45.1610685,76.0290825 C45.1272272,76.0514031 45.0883445,76.0665237 45.0545032,76.0902858 L43.0593066,77.4194768 L38.7094684,77.4194768 L38.7094684,74.1936878 L0,74.1936878 L0,100 L38.7094684,100 L38.7094684,96.774211 L80.3774461,96.774211 C85.1095864,96.774211 89.5550924,94.4599378 92.2697321,90.5825393 L98.8199271,81.2248019 C99.5903746,80.1238493 99.9986304,78.8307134 99.9986304,77.4856516 C99.9986304,73.9142423 97.1097981,71.0110321 93.5470524,70.9743503 L93.547904,70.9747319 Z M53.2255411,19.3547342 C53.2255411,10.4615103 60.4612624,3.22578903 69.3544863,3.22578903 C78.2477101,3.22578903 85.4834314,10.4615103 85.4834314,19.3547342 L85.4834314,29.0321013 L79.0318533,29.0321013 L79.0318533,19.3547342 C79.0318533,14.0178045 74.691416,9.67736709 69.3544863,9.67736709 C64.0175566,9.67736709 59.6771192,14.0178045 59.6771192,19.3547342 L59.6771192,29.0321013 L53.2255411,29.0321013 L53.2255411,19.3547342 Z M75.8060643,29.0321013 L62.9029082,29.0321013 L62.9029082,19.3547342 C62.9029082,15.7969654 65.7967174,12.9031561 69.3544863,12.9031561 C72.9122551,12.9031561 75.8060643,15.7969654 75.8060643,19.3547342 L75.8060643,29.0321013 Z M48.3868576,33.8707848 C48.3868576,32.9808173 49.1112223,32.2578903 49.9997521,32.2578903 L88.7092204,32.2578903 C89.5977502,32.2578903 90.3221149,32.9808173 90.3221149,33.8707848 L90.3221149,71.4908581 C89.2449226,71.9329571 88.2721721,72.6249165 87.5608395,73.5747178 L84.6769841,77.4183837 L77.1208959,77.4183837 C76.4534157,75.5455828 74.6792501,74.1925947 72.5788006,74.1925947 L51.3162427,74.1925947 C50.3161006,74.1925947 49.3376358,74.3423635 48.3868576,74.5986939 L48.3868576,33.8707848 Z M77.2567477,80.6447257 L82.2581954,80.6447257 L81.2904587,81.9350413 C80.382482,83.1475878 78.9337894,83.8705148 77.4195118,83.8705148 L75.7691797,83.8705148 C76.4971389,82.9078103 77.0191637,81.8205719 77.2567846,80.6447257 L77.2567477,80.6447257 Z M3.22581115,77.4189367 L22.5805453,77.4189367 L22.5805453,96.7736709 L3.22581115,96.7736709 L3.22581115,77.4189367 Z M35.4837014,96.7736709 L32.2579124,96.7736709 L32.2579124,83.8705148 L29.0321234,83.8705148 L29.0321234,96.7736709 L25.8063344,96.7736709 L25.8063344,77.4189367 L29.0321234,77.4189367 L29.0321234,80.6447257 L32.2579124,80.6447257 L32.2579124,77.4189367 L35.4837014,77.4189367 L35.4837014,96.7736709 Z M96.1783045,79.3737649 L89.6266348,88.73353 C87.5177061,91.7477072 84.0592916,93.5476975 80.3783898,93.5476975 L38.7104121,93.5476975 L38.7104121,80.6445414 L44.037941,80.6445414 L46.8447461,78.7739524 C48.1739371,77.8868604 49.7206752,77.4188261 51.3177173,77.4188261 L72.5821186,77.4188261 C73.4706484,77.4188261 74.1950131,78.1417531 74.1950131,79.0317206 C74.1950131,80.3249118 73.6902601,81.5432278 72.7758134,82.4576929 C71.8728874,83.3591811 70.6761012,83.8574641 69.4003478,83.8704226 L66.130688,83.8704226 L66.130688,83.8733028 L59.1303571,83.8718626 L59.1224366,83.8718626 C56.9694529,83.8718626 54.9447633,84.712153 53.4210849,86.2349835 L52.0875622,87.5685062 L54.3679185,89.8488626 L55.7014413,88.5153398 C56.615888,87.6023309 57.8306464,87.0975779 59.1237269,87.0975779 L59.1266071,87.0975779 L69.3475657,87.1004582 L69.3504459,87.1004582 C69.3662869,87.1004582 69.3828476,87.0954179 69.398689,87.0954179 L77.4207655,87.0961379 C79.9451758,87.0961379 82.358066,85.8914992 83.8723435,83.8703489 L90.1418027,75.5105783 C90.7610436,74.686122 91.746771,74.192908 92.7771802,74.192908 L93.4835358,74.192908 C95.2980514,74.192908 96.7754996,75.67043 96.7754996,77.4848718 C96.7754996,78.1638728 96.571003,78.8169568 96.180019,79.3735252 L96.1783045,79.3737649 Z" id="Shape"></path>
        </g>
    </g>
</svg>