<?xml version="1.0" encoding="UTF-8"?>
<svg width="269px" height="301px" viewBox="0 0 269 301" version="1.1" xmlns="http://www.w3.org/2000/svg" xmlns:xlink="http://www.w3.org/1999/xlink">
    <title>profile</title>
    <g id="Page-1" stroke="none" stroke-width="1" fill="none" fill-rule="evenodd">
        <g id="Artboard" transform="translate(-1176.000000, -122.000000)" fill="#FE7901" fill-rule="nonzero">
            <g id="profile" transform="translate(1176.723708, 122.833563)">
                <path d="M268.033612,118.690343 L244.508137,125.022518 L238.175962,148.547993 L231.843788,125.022518 L209.676356,119.056238 L209.674263,300 L0,300 L0,49.9219639 L173.775869,49.9219639 L172.786025,53.6029287 L143.487128,61.4902896 L11.5721829,61.4881971 L11.5721829,254.357019 C30.9335297,242.0816 67.2385326,226.202414 67.2706756,226.183663 C67.2706756,225.727468 67.3188061,213.253063 69.85926,212.621453 C70.2275654,212.65075 73.7662438,214.335318 75.1913045,207.979947 C57.9835399,211.993646 44.6993664,199.433655 44.6993664,199.433655 C73.1716516,203.315513 55.7003142,164.381694 55.7003142,164.381694 C39.0448738,99.0885101 80.8645472,81.7419948 91.7315658,86.9438065 C95.8017826,76.3842894 172.801614,74.4760656 152.122939,164.381694 C152.122939,164.381694 134.653745,203.31546 163.130316,199.433655 C163.130316,199.433655 150.744004,211.146035 134.398208,208.339949 C135.932126,214.440158 139.638162,212.590113 139.638162,212.590113 C142.224658,213.238813 142.224658,226.173217 142.224658,226.173217 C172.210343,239.576855 188.857212,248.640115 198.110651,254.58068 L198.110651,114.12105 L205.575331,86.3853751 L209.676888,85.2804589 L209.676888,118.317053 L231.84432,112.350773 L238.176494,88.8252981 L244.508669,112.350773 L268.033612,118.690343 Z M134.425801,69.9984928 L177.563338,81.6149795 L189.175539,124.752517 L200.792026,81.6149795 L243.931706,69.9984928 L200.792026,58.3862919 L189.175539,15.2466119 L177.563338,58.3862919 L134.425801,69.9984928 Z M158.135562,41.0092408 L162.486173,24.85416 L178.641254,20.5035489 L162.486173,16.1529379 L158.135562,0 L153.784951,16.1550808 L137.62987,20.5056918 L153.784951,24.8563029 L158.135562,41.0092408 Z" id="Shape"></path>
            </g>
        </g>
    </g>
</svg>