<?xml version="1.0" encoding="UTF-8"?>
<svg width="317px" height="301px" viewBox="0 0 317 301" version="1.1" xmlns="http://www.w3.org/2000/svg" xmlns:xlink="http://www.w3.org/1999/xlink">
    <title>reward</title>
    <g id="Page-1" stroke="none" stroke-width="1" fill="none" fill-rule="evenodd">
        <g id="Artboard" transform="translate(-711.000000, -106.000000)" fill="#000000" fill-rule="nonzero">
            <g id="reward" transform="translate(711.986935, 106.876663)">
                <path d="M149.27236,34.6401574 C149.27236,30.5538765 155.463935,30.5538765 155.463935,34.6401574 L155.463935,72.964183 C155.463935,77.0504639 149.27236,77.0504639 149.27236,72.964183 L149.27236,34.6401574 Z M172.489916,3.06471067 C172.489916,-1.02157022 178.681491,-1.02157022 178.681491,3.06471067 L178.681491,27.7059106 C178.681491,31.7921915 172.489916,31.7921915 172.489916,27.7059106 L172.489916,3.06471067 Z M266.348485,30.9256653 C266.348485,26.8393844 272.54006,26.8393844 272.54006,30.9256653 L272.54006,89.4337268 C272.54006,93.5200077 266.348485,93.5200077 266.348485,89.4337268 L266.348485,30.9256653 Z M224.804705,171.716349 C224.433227,167.691995 230.562677,167.134764 230.934013,171.15913 C231.3674,175.802584 238.920567,178.031676 243.130928,174.440528 C244.245389,173.449922 244.988288,172.149736 244.988288,170.78768 C244.988288,166.825254 241.149715,166.020372 237.37307,165.277417 C231.058093,164.039158 224.743117,162.738973 224.743117,153.699772 C224.743117,148.004066 229.324702,143.608037 234.834852,142.431762 L234.834852,139.521869 C234.834852,137.788307 236.196908,136.426195 238.054324,136.426195 C239.787886,136.426195 241.149998,137.850178 241.149998,139.58374 L241.088082,142.431705 C246.598346,143.608037 251.242084,148.003896 251.242084,153.761982 C251.242084,157.848263 245.050509,157.848263 245.050509,153.761982 C245.050509,148.870875 237.187356,146.456399 232.853594,150.109134 C231.739133,151.09974 230.996234,152.399926 230.996234,153.761982 C230.996234,157.724409 234.834807,158.529291 238.611452,159.272246 C244.926429,160.510504 251.241405,161.810689 251.241405,170.849891 C251.241405,176.607863 246.59795,181.003892 241.087403,182.180167 L241.025487,185.09006 C241.025487,189.176341 234.833913,189.176341 234.833913,185.09006 L234.833913,182.180167 C229.695154,181.003836 225.299182,177.041409 224.803878,171.717096 L224.804705,171.716349 Z M237.992227,199.886939 C217.251187,199.886939 200.410873,183.046625 200.410873,162.305585 C200.410873,141.502845 217.251187,124.724232 237.992227,124.724232 C258.794968,124.724232 275.635281,141.564545 275.635281,162.367286 C275.635281,183.046059 258.733267,199.886939 237.992227,199.886939 L237.992227,199.886939 Z M215.765277,184.470834 C228.023893,196.729451 247.898294,196.729451 260.15691,184.470834 C272.415526,172.212218 272.415526,152.337818 260.15691,140.079201 C254.461205,134.383496 246.598052,130.854106 237.92996,130.854106 C220.594343,130.854106 206.540182,144.908267 206.540182,162.305585 C206.540182,170.91141 210.069232,178.774563 215.765277,184.470268 L215.765277,184.470834 Z M139.114962,145.837174 C138.743484,141.81282 144.872934,141.193719 145.24427,145.279954 C145.677658,149.923409 153.230824,152.152501 157.441186,148.561353 C158.555646,147.570747 159.298545,146.270561 159.298545,144.908505 C159.298545,135.68341 139.052808,143.794044 139.052808,127.820257 C139.052808,122.124551 143.634393,117.728522 149.144543,116.48998 L149.144543,113.580087 C149.144543,111.846526 150.506599,110.484413 152.364015,110.484413 C154.097577,110.484413 155.459689,111.908396 155.459689,113.641958 L155.397773,116.489924 C160.908037,117.666255 165.551775,122.062115 165.551775,127.8202 C165.551775,131.906481 159.3602,131.906481 159.3602,127.8202 C159.3602,122.929094 151.497047,120.452351 147.163285,124.105425 C146.048824,125.096032 145.305925,126.396217 145.305925,127.8202 C145.305925,137.045296 165.551775,128.934661 165.551775,144.908449 C165.551775,150.666421 160.908207,155.06245 155.39766,156.238725 L155.335744,159.148618 C155.335744,163.234899 149.14417,163.234899 149.14417,159.148618 L149.14417,156.238725 C144.005412,155.062394 139.547738,151.161837 139.114135,145.837355 L139.114962,145.837174 Z M152.240783,173.945497 C131.438043,173.945497 114.65943,157.105183 114.65943,136.364143 C114.65943,115.561403 131.499744,98.7827897 152.240783,98.7827897 C173.043524,98.7827897 189.822307,115.623103 189.822307,136.364143 C189.884053,157.105183 173.043524,173.945497 152.240783,173.945497 Z M130.0761,158.529392 C142.334717,170.788009 162.270818,170.788009 174.529434,158.529392 C186.78805,146.270776 186.78805,126.334675 174.529434,114.076059 C168.833729,108.380353 160.970576,104.850963 152.302484,104.850963 C134.966867,104.850963 120.912705,118.905125 120.912705,136.240742 C120.85079,144.970534 124.379829,152.833121 130.0761,158.529392 L130.0761,158.529392 Z M59.2505523,219.884741 L59.2505523,220.318128 L58.074221,290.588936 C58.074221,292.074846 59.2505523,293.560757 60.7983894,293.622684 L85.8114913,293.808419 C87.3593284,293.808419 88.7213843,292.755886 88.7213843,291.208049 L89.8977156,220.625907 C89.8977156,219.139997 88.7213843,217.654087 87.1116201,217.59216 L62.0985182,217.406424 C60.6745352,217.406424 59.3743498,218.39703 59.2505523,219.88294 L59.2505523,219.884741 Z M52.9972768,223.104212 L6.19082764,223.104212 L6.19082764,289.10126 L51.8827027,289.10126 C52.2541802,267.122245 52.6256578,245.080963 52.9972768,223.104212 L52.9972768,223.104212 Z M53.1830127,295.293967 L3.09567421,295.293967 C1.42403957,295.293967 3.21768406e-14,293.931911 3.21768406e-14,292.198293 L3.21768406e-14,220.008538 C3.21768406e-14,218.336903 1.3620559,216.912864 3.09567421,216.912864 L53.678316,216.912864 C55.0403719,213.44574 58.3836978,211.217158 62.1601736,211.278802 C70.4563631,211.340718 79.0004873,211.216887 87.2966768,211.464538 C92.0639856,211.588364 95.7785343,215.488892 96.0881697,220.070363 C97.6360068,218.708307 99.2457143,217.222397 100.917349,215.67456 C124.134906,194.252549 132.74073,194.93352 162.21043,197.286636 C168.711074,197.781939 176.264592,198.401097 184.932684,198.834473 C209.202547,200.072731 204.435182,228.614374 179.855796,229.295346 L170.383332,229.542997 L200.844204,236.043641 C203.011142,236.538945 212.297882,236.786596 220.656338,236.600861 C226.909614,236.477035 232.481918,236.105557 233.719893,235.548327 L285.355408,211.40243 C294.085201,207.316149 302.814993,207.501931 308.448998,210.102245 C312.782874,212.083458 316.064216,215.79795 315.69288,220.565316 C315.383312,224.280091 312.906784,228.242234 307.39669,231.895592 C303.248539,234.681687 297.614591,238.520203 291.05168,243.0402 C263.995664,261.613793 221.833745,290.527621 206.357638,294.737416 C206.171902,294.799332 205.986161,294.799332 205.800419,294.861242 C179.858977,297.275832 118.62703,293.251478 93.6127964,295.604197 C92.0030322,298.328365 88.9693417,300 85.6879429,300 C77.3917533,299.938084 68.8476291,300.061916 60.5514396,299.814264 C57.4557654,299.690438 54.7317668,297.956905 53.1835901,295.294607 L53.1830127,295.293967 Z M95.9647684,228.368579 C95.6552009,248.676016 95.2837404,268.983454 94.9122346,289.28806 C107.728421,288.297454 128.283227,288.668903 149.024267,289.102324 C170.569679,289.535712 192.239625,289.907207 205.055245,288.730847 C219.666411,284.520769 261.024523,256.164794 287.649201,237.90027 C294.212112,233.380613 299.907817,229.541814 304.055912,226.693961 C309.751617,222.917259 312.042466,218.397772 305.975198,215.61162 C301.703193,213.692334 295.016824,213.630407 288.02031,216.849878 L236.384795,240.995775 C231.307907,243.348437 203.509106,242.853134 199.60838,241.986382 L143.639102,230.160802 C140.110052,229.417847 140.543428,224.155461 144.196321,224.031494 L179.672494,223.102814 C186.54504,222.917078 191.250139,219.945269 193.41702,216.354235 C194.717206,214.187297 195.212509,211.525056 194.036178,209.358288 C192.79792,207.067496 189.764172,205.333934 184.625414,205.024412 C175.462019,204.591024 168.094736,203.971878 161.77976,203.476575 C134.352408,201.309637 126.427554,200.690479 105.128378,220.255188 L95.9647684,228.368579 Z M195.580177,72.4697287 C195.2087,68.4453749 201.39985,67.8881445 201.709485,71.9125096 C202.142873,76.5559643 209.696039,78.7850558 213.906401,75.1939084 C215.020862,74.2033017 215.76376,72.9031163 215.76376,71.4791333 C215.76376,62.2540378 195.518024,70.3646725 195.518024,54.3908849 C195.518024,48.6951795 200.099608,44.29915 205.609759,43.0606086 L205.609759,40.1507156 C205.609759,38.4171539 206.971814,37.0550414 208.82923,37.0550414 C210.562792,37.0550414 211.924904,38.4790244 211.924904,40.2125861 L211.862989,43.060552 C217.373253,44.2368833 222.01699,48.6327429 222.01699,54.3908283 C222.01699,58.4771092 215.825415,58.4771092 215.825415,54.3908283 C215.825415,49.4997219 207.962263,47.0229788 203.6285,50.7379803 C202.514039,51.6666599 201.771141,53.0287724 201.771141,54.3908283 C201.771141,63.6159239 222.01699,55.5052891 222.01699,71.4790767 C222.01699,77.2370489 217.373422,81.6330783 211.862876,82.809353 L211.80096,85.719246 C211.80096,89.8055269 205.609385,89.8055269 205.609385,85.719246 L205.609385,82.809353 C200.470627,81.7568193 196.074654,77.8563196 195.579351,72.4696834 L195.580177,72.4697287 Z M208.767699,100.640319 C187.964959,100.640319 171.186346,83.800005 171.186346,63.0589652 C171.186346,42.3179253 188.02666,25.4776116 208.767699,25.4776116 C229.57044,25.4776116 246.349053,42.3179253 246.349053,63.0589652 C246.349053,83.800005 229.508739,100.640319 208.767699,100.640319 Z M186.54075,85.2242144 C192.236455,90.9199198 200.099608,94.4493099 208.767699,94.4493099 C226.103317,94.4493099 240.157478,80.3951483 240.157478,62.9978306 C240.157478,45.6622135 226.04105,31.5463512 208.767699,31.5463512 C191.432082,31.5463512 177.377921,45.6005129 177.377921,62.9361299 C177.316005,71.6659221 180.845044,79.528509 186.541316,85.2247805 L186.54075,85.2242144 Z" id="Shape"></path>
            </g>
        </g>
    </g>
</svg>