<?xml version="1.0" encoding="UTF-8"?>
<svg width="98px" height="101px" viewBox="0 0 98 101" version="1.1" xmlns="http://www.w3.org/2000/svg" xmlns:xlink="http://www.w3.org/1999/xlink">
    <title>team copy</title>
    <g id="Page-1" stroke="none" stroke-width="1" fill="none" fill-rule="evenodd">
        <g id="team-copy" transform="translate(0.713850, 0.381700)" fill="#FFFFFF" fill-rule="nonzero">
            <path d="M5.0009,38.3332365 L6.66756825,38.3332365 L6.66756825,43.3332413 L10.0009048,43.3332413 L10.0009048,26.6665587 L6.66756825,26.6665587 L6.66756825,34.9999 L5.0009,34.9999 C4.08051817,34.9999 3.33423175,34.2536136 3.33423175,33.3332317 L3.33423175,23.3332222 C3.33423175,21.5653729 4.03661337,19.8695999 5.28661456,18.618932 C6.53735861,17.3689308 8.23309356,16.6665492 10.0009048,16.6665492 L31.3818775,16.6665492 C31.0358962,17.640512 30.3967528,18.4842652 29.5529996,19.0810277 C28.7085035,19.6777521 27.7003121,19.9984381 26.6669016,19.9999238 L21.6668968,19.9999238 L21.6668968,23.3332603 L26.6669016,23.3332603 C28.8760465,23.3302841 30.9943343,22.4515642 32.556812,20.8898294 C34.1185658,19.3273327 34.9971952,17.209064 35.0002429,14.999919 C35.0002429,14.5579567 34.8246465,14.133842 34.5121472,13.8213465 C34.1996478,13.508851 33.7755369,13.3332508 33.3335746,13.3332508 L21.6236587,13.3332508 C22.7263455,11.899478 23.327527,10.1420097 23.3334889,8.33324603 C23.3334889,5.35629082 21.744954,2.60485962 19.1668183,1.11666773 C16.5887206,-0.372171783 13.4115747,-0.372171783 10.833477,1.11666773 C8.25537929,2.60476439 6.66680635,5.35629082 6.66680635,8.33324603 C6.67499093,10.1985811 7.31486411,12.0065829 8.48153189,13.4612509 C6.12286297,13.824337 3.9710514,15.0185476 2.4152404,16.8288732 C0.85942939,18.6391416 0.00304762195,20.9464009 0,23.3332603 L0,33.3332698 C0,34.6591568 0.526781454,35.931558 1.46428711,36.8688923 C2.40179276,37.8062265 3.67419398,38.3331794 4.99990952,38.3331794 L5.0009,38.3332365 Z M15.0009095,3.33320317 C16.3267965,3.33320317 17.5991977,3.85998463 18.5365319,4.79749028 C19.4738662,5.73499594 20.000819,7.00739715 20.000819,8.3331127 C20.000819,9.65882825 19.4740376,10.9314009 18.5365319,11.8687351 C17.5990263,12.8060693 16.3266251,13.3330222 15.0009095,13.3330222 C13.675194,13.3330222 12.4026213,12.8062408 11.4652871,11.8687351 C10.5279529,10.9312295 10.001,9.65882825 10.001,8.3331127 C10.001,7.00739715 10.5277815,5.73482451 11.4652871,4.79749028 C12.4027928,3.86015606 13.675194,3.33320317 15.0009095,3.33320317 Z" id="Shape"></path>
            <path d="M75.0009667,46.6665778 C75.0009667,39.3652375 72.0076305,32.3823737 66.7182921,27.3484641 C61.4287633,22.3141736 54.3068517,19.6699806 47.0135114,20.0315048 C39.5416948,20.4050099 32.570831,23.9004609 27.8020646,29.6646568 C23.0334886,35.4280909 20.9047247,42.9303837 21.9352018,50.3389622 C22.96646,57.748874 27.0624448,64.3843089 33.2239745,68.6269796 C35.3563575,70.0496096 36.6466444,72.4357452 36.6674063,74.9989857 L36.6674063,88.3323317 C36.6674063,88.7742941 36.8430027,89.1984088 37.1555021,89.5109043 C37.4680014,89.8233998 37.8921123,89.999 38.3340746,89.999 L58.3340937,89.999 C58.776056,89.999 59.2001707,89.8234036 59.5126662,89.5109043 C59.8251617,89.198405 60.0007619,88.7742941 60.0007619,88.3323317 L60.0007619,74.9989857 C60.0007619,74.9826166 59.9910893,74.9669914 59.9910893,74.9506219 C59.9910893,74.9342527 60.0007619,74.9171399 60.0007619,74.9007704 C60.0513562,72.3664823 61.342287,70.0182895 63.4561938,68.6188596 C70.6802006,63.645712 74.9971571,55.4365614 75.0009667,46.6664578 L75.0009667,46.6665778 Z M56.6676159,76.6666063 L56.6676159,79.9999429 L40.0009333,79.9999429 L40.0009333,76.6666063 L56.6676159,76.6666063 Z M56.6676159,86.6666159 L40.0009333,86.6666159 L40.0009333,83.3332794 L56.6676159,83.3332794 L56.6676159,86.6666159 Z M61.5626682,65.8742151 C59.0158086,67.5989215 57.2925689,70.296886 56.7977112,73.3325079 L50.0007524,73.3325079 L50.0007524,59.848876 C52.3281832,59.45379 54.4411376,58.2484364 55.9657104,56.4456347 C57.4910071,54.6435568 58.3295222,52.360107 58.3340937,49.9991524 L55.0007571,49.9991524 C55.0007571,52.3808689 53.7299178,54.5818234 51.6674206,55.7728722 C49.6049425,56.9633495 47.0632258,56.9633495 45.0007476,55.7728722 C42.9382695,54.581652 41.6674111,52.3806785 41.6674111,49.9991524 L38.3340746,49.9991524 C38.338539,52.360107 39.1770849,54.6435378 40.7024578,56.4456347 C42.2270116,58.2484555 44.3401756,59.4538281 46.6674159,59.848876 L46.6674159,73.3325079 L39.8809332,73.3325079 C39.3853899,70.2982193 37.6607406,67.6025977 35.1138811,65.8808818 C29.6079711,62.0936401 25.9904438,56.1271582 25.1778716,49.494009 C24.3653756,42.8608599 26.4360633,36.1978059 30.8645437,31.1934202 C35.2938812,26.1890345 41.6554111,23.3236984 48.3384651,23.3236984 C55.0207572,23.3236984 61.3830489,26.1890345 65.8116246,31.1934202 C70.2402002,36.1978059 72.3108689,42.8608599 71.4982967,49.494009 C70.6858007,56.1271582 67.0681972,62.0936401 61.5622872,65.8808818 L61.5626682,65.8742151 Z" id="Shape"></path>
            <path d="M68.00096,43.0322886 L64.7226712,43.6357177 L64.7226712,43.6349736 C64.9071951,44.6349745 65.0009381,45.6498326 65.0009381,46.6669764 L68.3342746,46.6669764 C68.3342746,45.4474896 68.2226712,44.2309741 68.000941,43.0322886 L68.00096,43.0322886 Z" id="Path"></path>
            <path d="M48.3342746,26.6665587 C46.4905205,26.6658147 44.6557949,26.9187875 42.8811266,27.4195309 L43.7881179,30.6263911 L43.7873739,30.6263911 C47.7755682,29.5021424 52.0395722,29.9001999 55.7502424,31.7446969 C59.4607222,33.5899368 62.3529154,36.7485112 63.8641549,40.6062291 L66.9706341,39.3926851 L66.9713781,39.3934291 C65.5197386,35.6338065 62.9608981,32.4031368 59.6328949,30.1307536 C56.3047012,27.8576086 52.3643165,26.6501789 48.3345984,26.6663694 L48.3342746,26.6665587 Z" id="Path"></path>
            <path d="M5.0009,94.9999571 L6.66756825,94.9999571 L6.66756825,100 L10.0009048,100 L10.0009048,83.3332794 L6.66756825,83.3332794 L6.66756825,91.6666206 L5.0009,91.6666206 C4.08051817,91.6666206 3.33423175,90.9203342 3.33423175,89.9999524 L3.33423175,79.9999429 C3.33423175,78.2320936 4.03661337,76.5363205 5.28661456,75.2856527 C6.53735861,74.0356515 8.23309356,73.3332698 10.0009048,73.3332698 L28.0493029,73.3332698 C27.7033216,74.3072327 27.0641782,75.1509859 26.220425,75.7477483 C25.3759289,76.3444727 24.3677375,76.6651587 23.334327,76.6666444 L20.0009905,76.6666444 C19.0806086,76.6666444 18.3343222,77.4129309 18.3343222,78.3333127 L18.3343222,100 L21.6676587,100 L21.6676587,79.999981 L23.334327,79.999981 C25.5434719,79.9970048 27.6617597,79.1182849 29.2242374,77.5565501 C30.7859912,75.9940533 31.6646206,73.8757846 31.6676683,71.6666397 C31.6676683,71.2246774 31.4920719,70.8005627 31.1795726,70.4880671 C30.8670732,70.1755716 30.4429623,69.9999714 30.001,69.9999714 L21.6244206,69.9999714 C22.7271074,68.5661986 23.3282889,66.8087303 23.3342508,64.9999667 C23.3342508,62.0230115 21.7457159,59.2715803 19.1675802,57.7833884 C16.5894825,56.2945489 13.4123366,56.2945489 10.8342389,57.7833884 C8.2561412,59.271485 6.66756825,62.0230115 6.66756825,64.9999667 C6.67575283,66.8653018 7.31562601,68.6733035 8.48229379,70.1279716 C6.12362488,70.4910576 3.97181331,71.6852683 2.4160023,73.4955938 C0.860191295,75.3058622 0.00380952744,77.6131215 0.000761905488,79.999981 L0.000761905488,89.9999905 C0.000761905488,91.3258775 0.52754336,92.5982787 1.46504901,93.5356129 C2.40255467,94.4729471 3.67495588,94.9999 5.00067143,94.9999 L5.0009,94.9999571 Z M15.0009095,59.9999238 C16.3267965,59.9999238 17.5991977,60.5267053 18.5365319,61.4642109 C19.4738662,62.4017166 20.000819,63.6741178 20.000819,64.9998333 C20.000819,66.3255489 19.4740376,67.5981215 18.5365319,68.5354557 C17.5990263,69.47279 16.3266251,69.9997429 15.0009095,69.9997429 C13.675194,69.9997429 12.4026213,69.4729614 11.4652871,68.5354557 C10.5279529,67.5979501 10.001,66.3255489 10.001,64.9998333 C10.001,63.6741178 10.5277815,62.4015451 11.4652871,61.4642109 C12.4027928,60.5268767 13.675194,59.9999238 15.0009095,59.9999238 Z" id="Shape"></path>
            <path d="M96.667654,23.3332222 C96.6646778,20.9463628 95.8082817,18.638932 94.2524136,16.8288351 C92.6966026,15.0185667 90.544791,13.8244513 88.1861221,13.4612128 C89.3527899,12.0066019 89.9926762,10.198543 90.0008476,8.33320794 C90.0008476,5.35625272 88.4123128,2.60482153 85.834177,1.11662963 C83.2560793,-0.372209878 80.0789334,-0.372209878 77.5008357,1.11662963 C74.922738,2.60472629 73.3341651,5.35625272 73.3341651,8.33320794 C73.3401175,10.1419906 73.9413085,11.899497 75.0439953,13.3332127 L63.3340794,13.3332127 C62.4136975,13.3332127 61.6674111,14.0794991 61.6674111,14.999881 C61.6703873,17.2090259 62.5491072,19.3273136 64.110842,20.8897913 C65.6733387,22.4515452 67.7916074,23.3301746 70.0007524,23.3332222 L75.0007571,23.3332222 L75.0007571,19.9998857 L70.0007524,19.9998857 C68.9672657,19.9983977 67.9590362,19.677714 67.1146544,19.0809896 C66.2709012,18.4842652 65.6317577,17.640512 65.2857765,16.6665111 L86.6667492,16.6665111 C88.4345985,16.6665111 90.1303716,17.3688927 91.3810394,18.6188939 C92.6310406,19.869638 93.3334222,21.5653729 93.3334222,23.3331841 L93.3334222,33.3331937 C93.3334222,33.775156 93.1578259,34.1992707 92.8453265,34.5117662 C92.5328272,34.8242617 92.1087163,34.9998619 91.666754,34.9998619 L90.0000857,34.9998619 L90.0000857,26.6665206 L86.6667492,26.6665206 L86.6667492,43.3332032 L90.0000857,43.3332032 L90.0000857,38.3331984 L91.666754,38.3331984 C92.9926409,38.3331984 94.2650422,37.806417 95.2023764,36.8689113 C96.1397106,35.9314056 96.6666635,34.6590044 96.6666635,33.3332889 L96.667654,23.3332222 Z M76.6676349,8.33320794 C76.6676349,7.00732096 77.1944164,5.73491975 78.131922,4.79758552 C79.0694277,3.8602513 80.3418289,3.33329841 81.6675444,3.33329841 C82.99326,3.33329841 84.2658326,3.86007987 85.2031669,4.79758552 C86.1405011,5.73509118 86.667454,7.00749239 86.667454,8.33320794 C86.667454,9.65892348 86.1406725,10.9314961 85.2031669,11.8688304 C84.2656612,12.8061646 82.99326,13.3331175 81.6675444,13.3331175 C80.3418289,13.3331175 79.0692563,12.806336 78.131922,11.8688304 C77.1945878,10.9313247 76.6676349,9.65892348 76.6676349,8.33320794 Z" id="Shape"></path>
            <path d="M96.667654,89.9999524 L96.667654,79.9999429 C96.6646778,77.6130834 95.8082817,75.3056527 94.2524136,73.4955557 C92.6966026,71.6852873 90.544791,70.4911719 88.1861221,70.1279335 C89.3527899,68.6733225 89.9926762,66.8652637 90.0008476,64.9999286 C90.0008476,62.0229734 88.4123128,59.2715422 85.834177,57.7833503 C83.2560793,56.2945108 80.0789334,56.2945108 77.5008357,57.7833503 C74.922738,59.2714469 73.3341651,62.0229734 73.3341651,64.9999286 C73.3401175,66.8087112 73.9413085,68.5662177 75.0439953,69.9999333 L66.6674159,69.9999333 C65.747034,69.9999333 65.0007476,70.7462198 65.0007476,71.6666016 C65.0037238,73.8757465 65.8824437,75.9940343 67.4441785,77.556512 C69.0066752,79.1182658 71.1249439,79.9968952 73.3340889,79.9999429 L75.0007476,79.9999429 L75.0007476,99.9999619 L78.3340937,99.9999619 L78.3340937,78.3332746 C78.3340937,77.8913123 78.1584973,77.4671976 77.8459979,77.1547021 C77.5334986,76.8422065 77.1093877,76.6666063 76.6674254,76.6666063 L73.3340889,76.6666063 C72.3006022,76.6651183 71.2923727,76.3444346 70.4479909,75.7477102 C69.6042377,75.1509859 68.9650943,74.3072327 68.619113,73.3332317 L86.6675111,73.3332317 C88.4353604,73.3332317 90.1311335,74.0356134 91.3818013,75.2856146 C92.6318025,76.5363586 93.3341841,78.2320936 93.3341841,79.9999048 L93.3341841,89.9999143 C93.3341841,90.4418766 93.1585878,90.8659913 92.8460884,91.1784868 C92.5335891,91.4909824 92.1094782,91.6665825 91.6675159,91.6665825 L90.0008476,91.6665825 L90.0008476,83.3332413 L86.6675111,83.3332413 L86.6675111,99.9999619 L90.0008476,99.9999619 L90.0008476,94.999919 L91.6675159,94.999919 C92.9934029,94.999919 94.2658041,94.4731376 95.2031383,93.5356319 C96.1404725,92.5981263 96.667654,91.3257251 96.667654,90.0000095 L96.667654,89.9999524 Z M76.6676349,64.9999286 C76.6676349,63.6740416 77.1944164,62.4016404 78.131922,61.4643062 C79.0694277,60.5269719 80.3418289,60.000019 81.6675444,60.000019 C82.99326,60.000019 84.2658326,60.5268005 85.2031669,61.4643062 C86.1405011,62.4018118 86.667454,63.674213 86.667454,64.9999286 C86.667454,66.3256441 86.1406725,67.5982168 85.2031669,68.535551 C84.2656612,69.4728852 82.99326,69.9998381 81.6675444,69.9998381 C80.3418289,69.9998381 79.0692563,69.4730566 78.131922,68.535551 C77.1945878,67.5980453 76.6676349,66.3256441 76.6676349,64.9999286 Z" id="Shape"></path>
        </g>
    </g>
</svg>