<?xml version="1.0" encoding="UTF-8"?>
<svg width="92px" height="100px" viewBox="0 0 92 100" version="1.1" xmlns="http://www.w3.org/2000/svg" xmlns:xlink="http://www.w3.org/1999/xlink">
    <title>total-supply copy</title>
    <g id="Page-1" stroke="none" stroke-width="1" fill="none" fill-rule="evenodd">
        <g id="total-supply-copy" transform="translate(0.403350, -0.000000)" fill="#FFFFFF" fill-rule="nonzero">
            <path d="M91.0063477,72.7672999 C89.7758597,70.1479665 86.6676931,68.9967317 84.0323677,70.1639584 L63.884364,76.4748302 C63.9947736,76.1116454 64.0579679,75.7331939 64.0739431,75.3547611 C64.1683719,73.9346941 63.6635449,72.5777395 62.6538761,71.5049768 C61.5810205,70.3689158 60.0817747,69.7064584 58.5201417,69.7064584 L45.3929781,69.7064584 L34.0171196,65.5414839 C31.192866,64.4998498 28.2263583,63.9797765 25.2286106,63.9797765 L18.1441745,63.9797765 L18.1441745,59.435458 C18.1441745,57.8258119 16.8345078,56.5321743 15.2408909,56.5321743 L2.90328363,56.5321743 C1.2943628,56.5321743 0,57.8411158 0,59.4507061 L0,94.6516022 C0,96.2612483 1.30966673,97.570134 2.91853177,97.570134 L15.2568829,97.570134 C16.8665289,97.570134 18.1601665,96.2604673 18.1601665,94.6516022 L18.1601665,90.5018759 L22.0571828,90.5018759 C22.9252112,90.5018759 23.7612743,90.64352 24.5500682,90.9435142 L48.9117661,99.6055752 C49.6693756,99.8736078 50.4422519,100 51.2311574,100 C52.4304052,100 53.6135868,99.7000021 54.6705434,99.0847581 L88.4674947,79.8349072 C89.6827345,79.2668767 90.6291979,78.2572079 91.1340602,77.0106536 C91.1652947,76.9474594 91.1972544,76.8690095 91.2132352,76.8370498 C91.6861136,75.4961616 91.6076601,74.01354 91.0076642,72.7670973 L91.0063477,72.7672999 Z M15.2416719,95.1876489 L2.90332082,95.1876489 C2.60332291,95.1876489 2.35126366,94.9348644 2.35126366,94.6355917 L2.35126366,59.4514313 C2.35126366,59.1514334 2.58805617,58.9146409 2.90332082,58.9146409 L15.2416719,58.9146409 C15.5416698,58.9146409 15.7784623,59.1514334 15.7784623,59.4514313 L15.7784623,89.3191964 L15.7784623,89.3351769 L15.7784623,94.6523159 C15.7937164,94.9523138 15.5416698,95.1891064 15.2416719,95.1891064 L15.2416719,95.1876489 Z M88.9868985,76.0177578 C88.9709183,76.0489923 88.955664,76.080952 88.9396832,76.1121865 C88.6556772,76.8218574 88.1348602,77.3586479 87.3779758,77.7218326 L53.4861885,97.0181717 C52.3341541,97.6806291 50.946071,97.8070214 49.6836364,97.3653831 L25.3535505,88.7033221 C24.3119164,88.3248706 23.1918473,88.1193182 22.0558606,88.1193182 L18.1588444,88.1193182 L18.1588444,66.3460856 L25.2432804,66.3460856 C27.9730699,66.3460856 30.6548836,66.8196892 33.226985,67.7661526 L44.8075777,71.9943511 C44.9339681,72.0415664 45.0756103,72.0735262 45.2179759,72.0735262 L58.5498737,72.0735262 C59.4651156,72.0735262 60.3324002,72.4519776 60.9635432,73.1151603 C61.5156003,73.6991642 61.7843582,74.4408004 61.7364009,75.1976475 C61.6891856,75.9073184 61.3891895,76.5857492 60.8843644,77.0913925 C60.6315799,77.344177 60.347574,77.5330308 60.0483013,77.6753964 L59.2594516,77.9121889 C59.1018267,77.9434234 58.9442056,77.9594042 58.7705999,77.9594042 L44.4442256,77.9594042 C43.7970163,77.9594042 43.2609511,78.4961947 43.2609511,79.1426787 C43.2609511,79.789888 43.7977416,80.3259532 44.4442256,80.3259532 L58.7705999,80.3259532 C59.4962441,80.3259532 60.221907,80.1843091 60.8690791,79.9002883 L84.8030851,72.4054541 C84.8503004,72.3894738 84.8975139,72.3742196 84.9447292,72.3422598 C86.4120097,71.6478371 88.1633891,72.2950445 88.8577374,73.7623268 C89.1897007,74.4400324 89.2376393,75.244874 88.984853,76.0177503 L88.9868985,76.0177578 Z" id="Shape"></path>
            <path d="M43.8784284,56.2955864 L47.3025663,56.2955864 L47.3025663,64.200075 C47.3025663,65.3041707 48.2018162,66.2040901 49.3218295,66.2040901 L81.3187561,66.2040901 C82.4228518,66.2040901 83.3227712,65.3048401 83.3227712,64.200075 L83.3227712,55.9324202 C83.3227712,54.8283245 82.4235213,53.913157 81.3187561,53.913157 L77.8793701,53.913157 L77.8793701,46.3710907 L81.3187561,46.3710907 C82.4228518,46.3710907 83.3227712,45.4718408 83.3227712,44.3670756 L83.3220449,36.1154128 C83.3220449,35.0113171 82.4227949,34.0961496 81.3180298,34.0961496 L73.8864196,34.0961496 C79.5667248,31.0351778 83.4477491,25.0236904 83.4477491,18.1289264 C83.4477491,8.12595859 75.3225343,0 65.3348146,0 C55.3318468,0 47.2058882,8.14120673 47.2058882,18.1289264 C47.2058882,25.0236904 51.0869126,31.0351778 56.7832097,34.0961496 L49.3515995,34.0961496 C48.2475038,34.0961496 47.3323363,34.9953995 47.3323363,36.1154128 L47.3323363,44.0199014 L43.9081984,44.0199014 C42.8041026,44.0199014 41.8889351,44.9191514 41.8889351,46.0391647 L41.8889351,54.3068194 C41.8584277,55.3963922 42.7576888,56.2955864 43.8777021,56.2955864 L43.8784284,56.2955864 Z M49.5427417,18.1454762 C49.5427417,9.45217513 56.6111857,2.38373105 65.3044868,2.38373105 C73.9825398,2.38373105 81.0509838,9.45217513 81.0509838,18.1454762 C81.0509838,26.8387773 73.9825398,33.8919732 65.3044868,33.8919732 C56.6111857,33.8919732 49.5427417,26.8235291 49.5427417,18.1454762 Z M49.669132,56.2955864 L55.4126612,56.2955864 L55.4126612,63.8376526 L49.669132,63.8376526 L49.669132,56.2955864 Z M58.6783672,46.3870827 L58.6783672,53.9291489 L52.3356975,53.9291489 L52.3356975,46.3870827 L58.6783672,46.3870827 Z M64.1212105,36.478579 L64.1212105,44.0206452 L57.7785408,44.0206452 L57.7785408,36.478579 L64.1212105,36.478579 Z M66.4883917,44.0206452 L66.4883917,36.478579 L72.8310614,36.478579 L72.8310614,44.0206452 L66.4883917,44.0206452 Z M64.1212105,56.2957723 L64.1212105,63.8378386 L57.7785408,63.8378386 L57.7785408,56.2957723 L64.1212105,56.2957723 Z M66.4883917,56.2957723 L72.8310614,56.2957723 L72.8310614,63.8378386 L66.4883917,63.8378386 L66.4883917,56.2957723 Z M61.0449906,53.9291489 L61.0449906,46.3870827 L67.3876602,46.3870827 L67.3876602,53.9291489 L61.0449906,53.9291489 Z M80.9400982,63.8376526 L75.196569,63.8376526 L75.196569,56.2955864 L80.9400982,56.2955864 L80.9400982,63.8376526 Z M75.4966971,53.9291489 L69.7531679,53.9291489 L69.7531679,46.3870827 L75.4966971,46.3870827 L75.4966971,53.9291489 Z M80.9400982,44.0206452 L75.196569,44.0206452 L75.196569,36.478579 L80.9400982,36.478579 L80.9400982,44.0206452 Z M49.6683882,36.478579 L55.4119174,36.478579 L55.4119174,44.0206452 L49.6683882,44.0206452 L49.6683882,36.478579 Z M44.2249871,46.3870827 L49.9677725,46.3870827 L49.9677725,53.9291489 L44.2249871,53.9291489 L44.2249871,46.3870827 Z" id="Shape"></path>
            <path d="M66.4884493,29.4086473 L66.4884493,28.4621839 C69.1230309,27.9101267 71.1110541,25.5748922 71.1110541,22.7666305 C71.1110541,19.5639626 68.5077126,16.9606211 65.3050447,16.9606211 C63.4112997,16.9606211 61.8656587,15.4141619 61.8656587,13.5212351 C61.8656587,11.6274901 63.4121179,10.0818491 65.3050447,10.0818491 C67.1987897,10.0818491 68.7444307,11.6283083 68.7444307,13.5212351 C68.7444307,14.1684444 69.2812211,14.7045096 69.9277052,14.7045096 C70.5749145,14.7045096 71.1110541,14.1677192 71.1110541,13.5212351 C71.1110541,10.7282216 69.1229566,8.37777609 66.488375,7.82568174 L66.488375,6.8458026 C66.488375,6.1985933 65.9515845,5.6625281 65.3051005,5.6625281 C64.6578912,5.6625281 64.121826,6.19931852 64.121826,6.8458026 L64.121826,7.82423131 C61.4872444,8.37628847 59.4992212,10.711523 59.4992212,13.5197847 C59.4992212,16.7224526 62.1025627,19.3257941 65.3052306,19.3257941 C67.1989756,19.3257941 68.7446167,20.8722533 68.7446167,22.7651801 C68.7446167,24.6589251 67.1981574,26.2045661 65.3052306,26.2045661 C63.4114856,26.2045661 61.8658446,24.6581069 61.8658446,22.7651801 C61.8658446,22.1179708 61.3290542,21.5819056 60.6825701,21.5819056 C60.0353608,21.5819056 59.4992212,22.118696 59.4992212,22.7651801 C59.4992212,25.5581936 61.4873188,27.9086391 64.1219004,28.4607334 L64.1219004,29.4071968 C64.1219004,30.0544061 64.6586908,30.5904744 65.3051748,30.5904744 C65.9516589,30.5919242 66.4884493,30.0711047 66.4884493,29.4086473 Z" id="Path"></path>
        </g>
    </g>
</svg>