<?xml version="1.0" encoding="UTF-8"?>
<svg width="301px" height="301px" viewBox="0 0 301 301" version="1.1" xmlns="http://www.w3.org/2000/svg" xmlns:xlink="http://www.w3.org/1999/xlink">
    <title>voting</title>
    <g id="Page-1" stroke="none" stroke-width="1" fill="none" fill-rule="evenodd">
        <g id="Artboard" transform="translate(-113.000000, -760.000000)" fill="#FE7901" fill-rule="nonzero">
            <g id="voting" transform="translate(113.391889, 760.331869)">
                <path d="M250.999234,79.1519274 C251.825119,81.0336414 253.153233,82.6496983 254.838547,83.8215838 C256.523804,84.9956979 258.499233,85.6809549 260.548375,85.8014692 L288.249514,89.9510114 L288.999514,89.9510114 L288.999514,89.9532434 C291.943685,89.899672 294.749227,88.6898722 296.807512,86.5849582 C298.865569,84.4778157 300.012883,81.6474733 300.000116,78.7032451 L300.000116,15.5489691 C300.030705,12.6672552 298.952598,9.88154135 296.990541,7.7701131 C295.026256,5.65628485 292.32757,4.37948505 289.450542,4.20091365 L261.749404,0 L260.999404,0 C258.046261,0.0535714204 255.23369,1.27011409 253.173691,3.38617091 C251.113405,5.50222773 249.972777,8.34599873 249.999577,11.2993126 L249.999577,11.7010954 C248.896891,11.4042211 247.778606,11.169844 246.64912,11.0001812 L198.35027,5.45109631 C196.850271,5.45109631 195.450728,5.15198779 193.950728,5.10065065 L189.350272,5.10065065 C167.461704,5.92876481 147.343421,17.3395059 135.399423,35.7012174 L116.100569,31.0003038 C113.332683,30.3083611 110.401884,30.7391439 107.950856,32.201218 C105.433027,33.7681891 103.636113,36.2659602 102.950856,39.1497883 L90.5491439,90.0000663 L55,90.0000663 C54.3660637,89.9911377 53.7366352,90.1094434 53.1495496,90.3505119 L3.14955723,110.350509 C2.68303731,110.555869 2.24555737,110.825955 1.85047172,111.149594 L1.55136319,111.399594 L1.54913119,111.399594 C1.27234266,111.700932 1.03797127,112.035766 0.850445585,112.399594 C0.705354178,112.59156 0.571428484,112.792451 0.45089136,113.000051 L0.45089136,113.450943 C0.216514253,113.939783 0.0647314187,114.462085 0,115.000028 L0,165.000021 C0,166.325906 0.526788491,167.598249 1.46428549,168.535734 C2.40178249,169.47322 3.67411373,170.00002 5,170.00002 L10,170.00002 L10,295 C10,296.325886 10.526787,297.598229 11.464284,298.535715 C12.401781,299.4732 13.6741122,300 15,300 L284.999957,300 C286.325842,300 287.598185,299.473212 288.53567,298.535715 C289.473156,297.598218 289.999956,296.325886 289.999956,295 L289.999956,170.00002 L294.999955,170.00002 C296.325841,170.00002 297.598183,169.473231 298.535669,168.535734 C299.473154,167.598237 300.000116,166.325906 300.000116,165.000021 L300.000116,115.000028 C299.977633,114.52012 299.874954,114.046885 299.700846,113.600486 L299.700846,113.100486 C299.595937,112.881737 299.462006,112.678611 299.299063,112.500029 C299.113794,112.136189 298.877189,111.799114 298.600377,111.500029 L298.301269,111.500029 L298.299037,111.500029 C297.919574,111.142886 297.479837,110.854943 296.999951,110.649572 L246.999959,90.6495748 C246.390588,90.2857348 245.707559,90.0625463 244.999959,90.000032 L213.999964,90.000032 L215.799049,82.4508903 C233.60019,80.9508905 245.000188,79.9999764 251.000187,79.1495765 L250.999234,79.1519274 Z M259.999232,73.6519282 L259.999232,11.3033663 C259.938964,10.7386349 260.269324,10.2051379 260.798318,10.0042808 L288.249171,14.1047373 L288.999171,14.1047373 C289.548279,14.1047373 289.999171,14.7051943 289.999171,15.4551942 L289.999171,78.7066131 C290.034885,79.2534874 289.711222,79.760213 289.200085,79.956613 L261.749232,75.8561564 L260.999232,75.8561564 C260.450124,75.8561564 259.999232,75.2556994 259.999232,74.5056995 L259.999232,73.6519282 Z M112.547826,41.5513617 C112.605861,41.2299331 112.808986,40.9531332 113.099163,40.8013618 C113.293358,40.7366304 113.50318,40.7366304 113.69962,40.8013618 L182.951038,57.5510735 C180.663096,60.9729587 179.692125,65.1093581 180.223382,69.1893575 C180.752399,73.2719283 182.745724,77.0219277 185.830524,79.7453558 C188.915323,82.470784 192.884237,83.9819838 197.000236,84.0020409 L198.299322,84.0020409 L205.299321,83.4529324 L198.85075,110.002071 L95.9536231,110.002071 L112.547826,41.5513617 Z M55.9495492,100.002781 L88.0992586,100.002781 L85.6997245,110.002781 L30.6997245,110.002781 L55.9495492,100.002781 Z M280.000944,290.002752 L20.0009832,290.002752 L20.0009832,170.002771 L95.2981146,170.002771 C86.8541159,183.158769 83.4341164,198.915909 85.6644018,214.38905 C87.8942872,229.86219 95.626686,244.011902 107.44097,254.246186 C119.258111,264.482756 134.367252,270.11647 149.999249,270.11647 C165.631247,270.11647 180.740387,264.482528 192.557528,254.246186 C204.372384,244.011902 212.104383,229.86219 214.334096,214.38905 C216.563982,198.915909 213.144382,183.15934 204.700384,170.002771 L279.997515,170.002771 L280.000944,290.002752 Z M150.000972,150.002774 C164.587818,150.002774 178.576959,155.79763 188.891815,166.111914 C199.20667,176.42677 205.000955,190.415339 205.000955,205.002774 C205.000955,219.590192 199.206099,233.578761 188.891815,243.893617 C178.576959,254.208472 164.58839,260.002757 150.000972,260.002757 C135.413537,260.002757 121.424968,254.207901 111.110112,243.893617 C100.795257,233.578761 95.0009718,219.590192 95.0009718,205.002774 C95.0009718,190.415339 100.795828,176.42677 111.110112,166.111914 C121.424968,155.797059 135.413537,150.002774 150.000972,150.002774 L150.000972,150.002774 Z M290.003228,160.002778 L196.800956,160.002778 C184.550672,147.29306 167.655818,140.111918 150.002106,140.111918 C132.348395,140.111918 115.452969,147.292488 103.203256,160.002778 L10.0032705,160.002778 L10.0032705,120.002778 L290.003228,120.002778 L290.003228,160.002778 Z M244.050097,100.002781 L269.050097,110.002781 L209.050097,110.002781 L211.44964,100.002781 L244.050097,100.002781 Z M211.348954,72.8016426 L197.550099,73.9511853 L197.550099,73.9534173 C195.612614,74.1029716 193.697414,73.4534174 192.251014,72.1521033 C190.907243,70.8351321 190.150557,69.0338181 190.150557,67.1521041 C190.150557,65.2703901 190.907243,63.469076 192.251014,62.1521048 C193.347014,61.0895907 194.744328,60.3909622 196.251014,60.1521051 L204.000727,60.1521051 C208.054326,60.1900514 211.920154,58.4355911 214.560725,55.3597058 C217.201353,52.2838206 218.350896,48.1991355 217.699125,44.1968504 C217.049582,40.1946224 214.665639,36.6837087 211.185983,34.6031376 C207.706097,32.5205665 203.484841,32.0830237 199.649984,33.4022235 L168.500275,43.7525076 L145.951135,38.2525085 C156.127705,24.2793677 172.127703,15.7165119 189.3997,15.0022263 L193.6497,15.0022263 L197.549242,15.3013348 L245.598377,20.8504197 L249.99792,21.9508767 L249.99792,69.1005838 C243.799063,70.002355 230.850494,71.1518977 211.350497,72.8014975 L211.348954,72.8016426 Z M186.647815,48.0519321 L202.547241,42.7528472 L202.549474,42.7528472 C203.556159,42.3443673 204.687873,42.3979387 205.652159,42.8979386 C206.614216,43.3979385 207.308387,44.2952527 207.549473,45.3533097 C207.80617,46.4715952 207.549473,47.6434807 206.850787,48.5519949 C206.158845,49.4827947 205.060616,50.0229661 203.899874,50.002909 L195.000446,50.002909 L186.647815,48.0519321 Z" id="Shape"></path>
                <path d="M144.99925,209.500479 L144.99925,225.000477 L134.999251,225.000477 C132.238109,225.000477 129.999252,227.239333 129.999252,230.000476 C129.999252,232.761618 132.238109,235.000475 134.999251,235.000475 L144.99925,235.000475 L144.99925,245.000474 C144.99925,247.761616 147.238107,250.000473 149.999249,250.000473 C152.760392,250.000473 154.999248,247.761616 154.999248,245.000474 L154.999248,235.000475 L164.999247,235.000475 C167.760389,235.000475 169.999246,232.761618 169.999246,230.000476 C169.999246,227.239333 167.760389,225.000477 164.999247,225.000477 L154.999248,225.000477 L154.999248,209.500479 C163.166676,207.833051 169.963818,202.205623 173.12896,194.49591 C176.291931,186.783911 175.40576,178.005055 170.762903,171.080485 C166.120047,164.158772 158.334334,160.004486 149.999478,160.004486 C141.664622,160.004486 133.878909,164.158486 129.236052,171.080485 C124.593196,178.004486 123.707025,186.78334 126.869996,194.49591 C130.035195,202.205623 136.83228,207.833051 144.999707,209.500479 L144.99925,209.500479 Z M149.999249,170.000485 C153.976906,170.000485 157.794105,171.580828 160.606105,174.393341 C163.418104,177.205855 164.998961,181.023055 164.998961,185.000197 C164.998961,188.977339 163.418619,192.795053 160.606105,195.607052 C157.793591,198.419052 153.976391,199.999909 149.999249,199.999909 C146.022107,199.999909 142.204393,198.419566 139.392394,195.607052 C136.580394,192.794539 134.999537,188.977339 134.999537,185.000197 C134.999537,181.023055 136.57988,177.205341 139.392394,174.393341 C142.204907,171.581342 146.022107,170.000485 149.999249,170.000485 Z" id="Shape"></path>
            </g>
        </g>
    </g>
</svg>